<?xml version="1.0" encoding="UTF-8"?>
<svg version="1.1" xmlns="http://www.w3.org/2000/svg" width="563" height="443">
<path d="M0 0 C1.38445312 0.495 1.38445312 0.495 2.796875 1 C18.75988352 7.13268124 33.86084618 16.45981452 48 26 C48.99 26.66 49.98 27.32 51 28 C51 28.66 51 29.32 51 30 C51.53625 30.2475 52.0725 30.495 52.625 30.75 C58.90476659 34.05514031 65.34874056 38.57353066 70 44 C70 44.66 70 45.32 70 46 C70.99 46.33 71.98 46.66 73 47 C73 47.66 73 48.32 73 49 C73.99 49.33 74.98 49.66 76 50 C76 50.66 76 51.32 76 52 C76.66 52 77.32 52 78 52 C81.70142161 55.58953985 84.86881428 59.71471275 87.8125 63.9375 C89.65558265 67.02274454 89.65558265 67.02274454 92 68 C92 68.99 92 69.98 92 71 C120.05 71 148.1 71 177 71 C176.18387054 75.89677674 175.61412453 78.24042178 173.41015625 82.38671875 C172.87801514 83.39814941 172.34587402 84.40958008 171.79760742 85.45166016 C170.93872925 87.05340088 170.93872925 87.05340088 170.0625 88.6875 C169.47637939 89.79657715 168.89025879 90.9056543 168.28637695 92.04833984 C167.09376449 94.30373894 165.89773705 96.55733568 164.69824219 98.80908203 C162.75613877 102.4582039 160.83537133 106.11815774 158.91699219 109.77978516 C155.91154799 115.5125685 152.88020133 121.23094274 149.81982422 126.93457031 C146.37239191 133.36153331 143.02506836 139.8248863 139.87109375 146.40234375 C138.61395885 148.93658993 137.20067641 151.23675102 135.59765625 153.56640625 C127.90320889 165.27975408 128.12617621 176.9362883 128.08203125 190.5078125 C127.96005227 226.65876751 110.51296041 263.62394478 88.27001953 291.41259766 C86.98231239 293.02210781 85.70782082 294.64152563 84.43359375 296.26171875 C79.83491564 302.02667477 79.83491564 302.02667477 78 304 C77.34 304 76.68 304 76 304 C75.67 304.99 75.34 305.98 75 307 C74.34 307 73.68 307 73 307 C72.67 307.99 72.34 308.98 72 310 C71.34 310 70.68 310 70 310 C70 310.66 70 311.32 70 312 C57.36942372 325.06626288 40.82874168 335.26622738 24.98876953 343.90429688 C23.29626328 344.83677515 21.62767106 345.81244699 19.96484375 346.796875 C12.77235561 351.00605358 5.14905909 353.59617682 -2.72290039 356.21655273 C-5.26041298 357.08959636 -7.76560303 358.03594606 -10.27734375 358.98046875 C-16.11678404 361.11346825 -22.03020642 362.70161834 -28.0625 364.1875 C-29.07376953 364.44724609 -30.08503906 364.70699219 -31.12695312 364.97460938 C-32.12791016 365.22404297 -33.12886719 365.47347656 -34.16015625 365.73046875 C-35.04324463 365.95114014 -35.92633301 366.17181152 -36.83618164 366.39916992 C-45.87051766 368.11485022 -54.91174853 368.15989384 -64.08203125 368.16796875 C-65.42665134 368.17119285 -66.7712711 368.17455772 -68.1158905 368.17805481 C-70.92044893 368.18400382 -73.72497674 368.18589908 -76.52954102 368.18530273 C-80.08611834 368.18520131 -83.64249519 368.1988527 -87.19902515 368.21607494 C-89.97292445 368.22730738 -92.74677696 368.22921854 -95.52069664 368.22869301 C-97.45740116 368.23041355 -99.39409109 368.24117846 -101.33076477 368.25224304 C-112.90998114 368.22275286 -123.9545035 366.46251336 -135.1875 363.75 C-136.07824219 363.53529053 -136.96898437 363.32058105 -137.88671875 363.09936523 C-151.50668647 359.72460228 -164.41816287 355.24835484 -177 349 C-178.32064453 348.36771484 -178.32064453 348.36771484 -179.66796875 347.72265625 C-184.85115831 345.20740302 -189.79287138 342.40625513 -194.703125 339.39453125 C-196.58393578 338.25261042 -198.50584397 337.17863056 -200.4375 336.125 C-208.55377471 331.4925091 -215.86294532 325.39733117 -223.1875 319.625 C-223.85974609 319.10099609 -224.53199219 318.57699219 -225.22460938 318.03710938 C-226.85505862 316.73850649 -228.43303135 315.3745339 -230 314 C-230 313.34 -230 312.68 -230 312 C-230.86625 311.62875 -230.86625 311.62875 -231.75 311.25 C-234.32939979 309.81700012 -236.06121592 308.21575324 -238 306 C-238 305.34 -238 304.68 -238 304 C-238.99 303.67 -239.98 303.34 -241 303 C-241 302.34 -241 301.68 -241 301 C-241.66 301 -242.32 301 -243 301 C-244.91303342 298.76517546 -246.71866653 296.5234864 -248.5 294.1875 C-248.99886719 293.54490234 -249.49773437 292.90230469 -250.01171875 292.24023438 C-252.10112435 289.53745099 -254.10353174 286.84470239 -256 284 C-256.97957169 284.16265854 -257.95914337 284.32531708 -258.96839905 284.49290466 C-263.160391 285.08821691 -267.27772242 285.13351821 -271.50561523 285.11352539 C-272.32593735 285.11367142 -273.14625946 285.11381744 -273.99143982 285.1139679 C-276.68051881 285.11327584 -279.36952698 285.10551679 -282.05859375 285.09765625 C-283.93188947 285.09578956 -285.80518567 285.09436684 -287.67848206 285.09336853 C-292.59228886 285.08956315 -297.50606578 285.07974988 -302.41986084 285.06866455 C-307.44071041 285.05840776 -312.46156484 285.05386179 -317.48242188 285.04882812 C-327.32162766 285.03812574 -337.16081134 285.02107322 -347 285 C-345.23693565 277.72114484 -342.19203262 271.11329978 -338.46484375 264.64453125 C-336.63374499 261.33878762 -334.97781644 257.95348829 -333.3125 254.5625 C-329.93337184 247.7037522 -326.29717888 241.01595469 -322.5012207 234.37915039 C-319.66879277 229.38091704 -317.24484513 224.28777141 -315 219 C-314.34 219 -313.68 219 -313 219 C-312.87923096 218.26499268 -312.75846191 217.52998535 -312.6340332 216.77270508 C-312.01321835 214.05780548 -311.17287162 212.07606006 -309.85546875 209.63671875 C-309.21061523 208.42918945 -309.21061523 208.42918945 -308.55273438 207.19726562 C-308.10220703 206.36904297 -307.65167969 205.54082031 -307.1875 204.6875 C-306.30520649 203.04599358 -305.42368798 201.40407036 -304.54296875 199.76171875 C-304.10903809 198.95395996 -303.67510742 198.14620117 -303.22802734 197.31396484 C-301.80165679 194.62626304 -300.42667761 191.9195584 -299.09887695 189.18188477 C-298.27358541 187.54321992 -297.39412106 185.93165991 -296.48901367 184.33569336 C-292.19988619 176.50938193 -290.83923907 169.57350664 -290 160.75 C-289.69245653 158.08932274 -289.37819832 155.43109323 -289.046875 152.7734375 C-288.96507996 152.113367 -288.88328491 151.45329651 -288.79901123 150.77322388 C-285.55568898 125.58352494 -276.32891375 99.43855166 -261 79 C-260.43667969 77.95972656 -259.87335938 76.91945313 -259.29296875 75.84765625 C-256.72519177 71.29454635 -253.42347663 67.42179791 -250.0625 63.4375 C-249.15081055 62.34405273 -249.15081055 62.34405273 -248.22070312 61.22851562 C-247.03280638 59.80483355 -245.8420607 58.38352275 -244.64819336 56.96484375 C-243.17146905 55.20441163 -241.71382669 53.42987958 -240.2578125 51.65234375 C-237.6804954 48.62466501 -235.16349463 46.39019595 -232 44 C-231.34 44 -230.68 44 -230 44 C-229.67 43.01 -229.34 42.02 -229 41 C-228.34 41 -227.68 41 -227 41 C-227 40.34 -227 39.68 -227 39 C-224.97557948 37.22445876 -222.94695327 35.57203892 -220.8125 33.9375 C-220.17828125 33.44725342 -219.5440625 32.95700684 -218.890625 32.4519043 C-156.93239456 -15.05607782 -73.39305186 -27.47720168 0 0 Z " fill="#E4212A" transform="translate(367,49)"/>
<path d="M0 0 C0.81027649 -0.00014603 1.62055298 -0.00029205 2.4553833 -0.0004425 C5.12287104 0.00025192 7.79028819 0.00802227 10.45776367 0.01586914 C12.31149762 0.01773499 14.16523206 0.01915811 16.01896667 0.02015686 C20.8900591 0.02396888 25.76112154 0.03378793 30.63220215 0.04486084 C35.60595291 0.05510324 40.57970852 0.05966054 45.5534668 0.06469727 C55.30673515 0.07541139 65.05998129 0.09247201 74.81323242 0.11352539 C73.49256939 4.22826586 72.04191054 7.6340571 69.75073242 11.30102539 C66.60320735 16.55778407 63.94575369 21.92879739 61.37573242 27.48852539 C58.11567888 34.5244725 54.56813076 41.24090277 50.64526367 47.92602539 C48.37515634 51.87572174 46.36643094 55.92380905 44.36010742 60.01196289 C42.65401711 63.43276014 40.87023036 66.80791285 39.06323242 70.17602539 C35.51751974 76.78558428 32.01638802 83.41755732 28.52954102 90.05834961 C26.26299498 94.3711435 23.98092858 98.67470729 21.67407227 102.96606445 C18.75946036 108.39108255 15.92260894 113.84484894 13.18823242 119.36352539 C9.07271134 127.66698748 4.8084736 135.89143787 0.52319336 144.10839844 C-2.45343265 149.82069676 -5.41192265 155.53980226 -8.3081665 161.29335022 C-9.71131164 164.07955105 -11.12287173 166.86145497 -12.53466797 169.64328003 C-13.20892385 170.97770807 -13.87914697 172.31418299 -14.54492188 173.65286255 C-23.61772011 191.88583056 -34.37422716 202.70245734 -53.08203125 210.484375 C-58.71249652 212.16744065 -64.49535328 212.25604527 -70.32519531 212.22705078 C-71.10650314 212.22719681 -71.88781097 212.22734283 -72.6927948 212.22749329 C-75.25201278 212.22680166 -77.8111562 212.21904466 -80.37036133 212.21118164 C-82.15397604 212.20931479 -83.93759126 212.20789215 -85.72120667 212.20689392 C-90.39827916 212.20308974 -95.07532023 212.19327752 -99.75238037 212.18218994 C-104.53193741 212.17193055 -109.31149956 212.16738662 -114.09106445 212.16235352 C-123.45631258 212.15165325 -132.82153746 212.13460221 -142.18676758 212.11352539 C-141.07534299 207.46532331 -139.11357485 203.41824811 -137.06176758 199.11352539 C-136.65579346 198.25847412 -136.24981934 197.40342285 -135.83154297 196.52246094 C-133.11926317 190.87991696 -130.16332377 185.47342874 -126.92504883 180.11352539 C-124.52308289 175.96811002 -122.42710695 171.69183937 -120.31201172 167.39501953 C-117.81584982 162.33610743 -115.21759028 157.34033768 -112.56176758 152.36352539 C-110.06560132 147.68223019 -107.60089342 142.99477146 -105.24926758 138.23852539 C-100.0601431 127.75965629 -94.51961411 117.45395882 -88.99145508 107.15087891 C-86.18848387 101.9249653 -83.44692164 96.67683136 -80.81176758 91.36352539 C-75.42884447 80.51184669 -69.71895947 69.82755121 -63.99291992 59.15380859 C-61.12278 53.80209069 -58.32343969 48.42885674 -55.62426758 42.98852539 C-54.47947038 40.69634095 -53.33364817 38.40466813 -52.18676758 36.11352539 C-51.6221582 34.9752832 -51.05754883 33.83704102 -50.47583008 32.66430664 C-42.05431975 16.25950936 -30.36237758 7.36301475 -13.18676758 1.11352539 C-8.80355969 -0.01951112 -4.49669593 -0.02132452 0 0 Z " fill="#FEFDFD" transform="translate(320.186767578125,120.886474609375)"/>
<path d="M0 0 C5.89882342 5.15987794 9.4826523 13.12950511 13 20 C13.61746094 21.13824219 14.23492187 22.27648437 14.87109375 23.44921875 C25.54687055 43.47089961 32.03911964 65.41527205 34 88 C34.17595703 89.91425781 34.17595703 89.91425781 34.35546875 91.8671875 C34.28392949 97.18365015 31.68100628 101.28336192 29.125 105.8125 C28.10402564 107.68872535 27.0831951 109.56502896 26.0625 111.44140625 C25.28712891 112.84543701 25.28712891 112.84543701 24.49609375 114.27783203 C22.31825476 118.24044704 20.22104365 122.24370919 18.125 126.25 C17.30874793 127.80086241 16.49233707 129.35164125 15.67578125 130.90234375 C5.76481787 149.70963475 5.76481787 149.70963475 -3.8125 168.6875 C-4.86874039 170.79481579 -5.93114413 172.8990548 -7 175 C-7.89525391 176.7634375 -7.89525391 176.7634375 -8.80859375 178.5625 C-16.92989323 193.98281998 -29.16853397 204.70623246 -46 210 C-50.75391708 210.97392806 -55.37498402 211.1368454 -60.20849609 211.11352539 C-61.00916504 211.11367142 -61.80983398 211.11381744 -62.63476562 211.1139679 C-65.26435109 211.1132748 -67.8938645 211.10551076 -70.5234375 211.09765625 C-72.35332195 211.09578993 -74.18320691 211.09436704 -76.01309204 211.09336853 C-80.81676628 211.08956023 -85.62041003 211.0797444 -90.42407227 211.06866455 C-95.33088773 211.05841411 -100.23770815 211.05386314 -105.14453125 211.04882812 C-114.76303419 211.03812056 -124.38151455 211.02106447 -134 211 C-132.4176225 206.97739621 -130.63108492 203.10880724 -128.6875 199.25 C-128.17678955 198.23256714 -128.17678955 198.23256714 -127.65576172 197.19458008 C-118.22363232 178.49266075 -108.42889371 159.96544067 -98.59375 141.47265625 C-93.73975902 132.34454481 -93.73975902 132.34454481 -89.0625 123.125 C-84.10671423 113.11759835 -78.80957135 103.28081792 -73.56640625 93.421875 C-68.72649773 84.31894085 -68.72649773 84.31894085 -64.0625 75.125 C-60.29611403 67.51959803 -56.30328689 60.03380281 -52.33642578 52.53173828 C-50.98963493 49.98036431 -49.64824655 47.42622216 -48.30859375 44.87109375 C-47.8693457 44.03392822 -47.43009766 43.1967627 -46.97753906 42.33422852 C-46.14674021 40.75045924 -45.31660934 39.1663393 -44.48730469 37.58178711 C-43.3328087 35.38354339 -42.16821434 33.19098051 -41 31 C-40.59112549 30.22325928 -40.18225098 29.44651855 -39.76098633 28.64624023 C-32.15774936 14.50407227 -21.46566356 7.07931982 -7 1 C-4.42336736 -0.28831632 -2.85786309 -0.33190869 0 0 Z " fill="#FEFDFD" transform="translate(460,122)"/>
<path d="M0 0 C0.80081497 -0.00014603 1.60162994 -0.00029205 2.42671204 -0.0004425 C5.0508605 0.00024934 7.67493633 0.00800739 10.29907227 0.01586914 C12.12752748 0.01773591 13.95598319 0.01915859 15.78443909 0.02015686 C20.57987873 0.02396165 25.37528773 0.03377442 30.17071533 0.04486084 C35.07091864 0.0551189 39.97112693 0.05966387 44.87133789 0.06469727 C54.47356484 0.07539862 64.07576912 0.09245041 73.67797852 0.11352539 C72.15328235 3.99627629 70.43109763 7.67390333 68.51782227 11.38305664 C68.21195694 11.97659943 67.90609161 12.57014221 67.59095764 13.18167114 C66.60192487 15.09791531 65.60899236 17.01210115 64.61547852 18.92602539 C64.27750244 19.57902618 63.93952637 20.23202698 63.59130859 20.90481567 C59.40593504 28.98734026 55.14137873 37.01013715 50.61376953 44.90722656 C47.03002341 51.17985269 43.85164784 57.6249696 40.67797852 64.11352539 C34.24414216 77.15010549 27.58601893 90.07639641 20.55297852 102.80102539 C18.23382417 107.01825857 16.06534863 111.3021505 13.92797852 115.61352539 C10.96332237 121.59286804 7.91833992 127.52377662 4.80297852 133.42602539 C4.38161621 134.22435791 3.96025391 135.02269043 3.52612305 135.84521484 C1.83801259 139.03903263 0.14693238 142.23124994 -1.54858398 145.42114258 C-2.76687849 147.71330474 -3.9824722 150.00687675 -5.19702148 152.30102539 C-5.80562012 153.44716309 -5.80562012 153.44716309 -6.42651367 154.61645508 C-8.81088811 159.13841656 -11.1065549 163.69353552 -13.33764648 168.29321289 C-13.85472168 169.35258057 -14.37179688 170.41194824 -14.90454102 171.50341797 C-15.90085138 173.55265082 -16.88696109 175.60688897 -17.8605957 177.66699219 C-24.2785158 190.84255221 -33.90772507 201.78602708 -47.32202148 208.11352539 C-49.6887381 208.65861563 -51.89080857 208.91505903 -54.32202148 209.11352539 C-59.31961028 203.0791493 -63.32855972 196.96308305 -66.88452148 189.98852539 C-67.35631836 189.07490234 -67.82811523 188.1612793 -68.31420898 187.2199707 C-72.15094343 179.68126315 -75.45266056 172.07082526 -78.32202148 164.11352539 C-78.62495117 163.28981445 -78.92788086 162.46610352 -79.23999023 161.61743164 C-83.96142162 148.17213718 -86.45259394 134.16296434 -87.13061523 119.95336914 C-87.25483277 117.46141329 -87.45136256 114.97162845 -87.73217773 112.49243164 C-88.59052852 101.26133471 -84.28759453 94.00242955 -78.7331543 84.54858398 C-76.47615337 80.65389069 -74.40353337 76.66641781 -72.32202148 72.67602539 C-71.91177734 71.89880127 -71.5015332 71.12157715 -71.07885742 70.32080078 C-68.02627986 64.52531879 -65.09993188 58.67259349 -62.19702148 52.80102539 C-58.19472787 44.7168604 -53.89349295 36.88901943 -49.32202148 29.11352539 C-48.99564697 28.52587402 -48.66927246 27.93822266 -48.33300781 27.33276367 C-41.06555374 14.26638125 -29.34592673 6.01783908 -15.32202148 1.11352539 C-10.19422425 0.2146246 -5.19197089 -0.02517088 0 0 Z " fill="#FEFDFD" transform="translate(165.322021484375,120.886474609375)"/>
<path d="M0 0 C-0.33 0.99 -0.66 1.98 -1 3 C-1.99 3.33 -2.98 3.66 -4 4 C-4.66 4.99 -5.32 5.98 -6 7 C-6.66 7 -7.32 7 -8 7 C-8.103125 7.598125 -8.20625 8.19625 -8.3125 8.8125 C-9.1141384 11.36316765 -9.90032564 12.36691995 -12 14 C-12.61875 14.103125 -13.2375 14.20625 -13.875 14.3125 C-17.27728593 15.41323956 -18.79437601 18.28538585 -21 21 C-21.99 21.33 -22.98 21.66 -24 22 C-25.68711423 23.6459651 -27.3545622 25.31237149 -29 27 C-29.99 27.495 -29.99 27.495 -31 28 C-31.33 28.66 -31.66 29.32 -32 30 C-33 32 -33 32 -35 33 C-35.268125 33.61875 -35.53625 34.2375 -35.8125 34.875 C-37 37 -37 37 -39.4375 38.375 C-42.68926782 40.43709667 -43.32683179 42.58394824 -45 46 C-45.78375 46.598125 -46.5675 47.19625 -47.375 47.8125 C-50.55188748 50.45990623 -51.85457593 53.19158645 -53.734375 56.8203125 C-55.39302005 59.67686787 -57.64357876 61.7090349 -60 64 C-60.86119134 66.17346568 -60.86119134 66.17346568 -61 68 C-61.99 68 -62.98 68 -64 68 C-60.59777105 58.99128108 -55.04726402 51.40881839 -49 44 C-48.25105469 43.07703125 -47.50210938 42.1540625 -46.73046875 41.203125 C-45.18105082 39.30168342 -43.62649488 37.4044151 -42.06640625 35.51171875 C-40.87598172 34.06475661 -39.69218385 32.61216797 -38.52734375 31.14453125 C-35.66357983 27.56252429 -32.64564926 24.75449055 -29 22 C-28.34 22 -27.68 22 -27 22 C-26.505 20.515 -26.505 20.515 -26 19 C-25.34 19 -24.68 19 -24 19 C-24 18.34 -24 17.68 -24 17 C-21.86960637 15.16881896 -19.7324574 13.44867038 -17.5 11.75 C-16.8615918 11.25781982 -16.22318359 10.76563965 -15.56542969 10.25854492 C-14.29385565 9.28002644 -13.02012645 8.30430148 -11.74414062 7.33154297 C-10.27566911 6.21045623 -8.81642304 5.07730021 -7.359375 3.94140625 C-2.25539568 0 -2.25539568 0 0 0 Z " fill="#B1252B" transform="translate(164,71)"/>
<path d="M0 0 C-1.44029013 4.82571435 -3.45900963 8.9920881 -5.875 13.375 C-8.01833491 17.30308907 -10.13566576 21.23400958 -12.12939453 25.24072266 C-12.4819632 25.94846832 -12.83453186 26.65621399 -13.19778442 27.38540649 C-13.46251556 27.91822235 -13.7272467 28.45103821 -14 29 C-3.46384389 28.91541454 7.07216382 28.82046115 17.60810757 28.71247292 C22.50099826 28.66264468 27.39386876 28.61631394 32.28686523 28.578125 C37.01374525 28.5411014 41.74045061 28.4946962 46.46718025 28.44193649 C48.26554343 28.42348291 50.06394392 28.40834205 51.86236382 28.39665604 C54.39206492 28.37963786 56.92137386 28.35056745 59.45092773 28.31884766 C60.18533081 28.31668747 60.91973389 28.31452728 61.6763916 28.31230164 C66.99023542 28.2278388 71.85251052 27.27511989 77 26 C78.66534667 25.66013333 80.33129513 25.32297514 82 25 C77.98101104 29.47938078 72.90919089 30.68877055 66.99837494 31.15935898 C61.14416865 31.4200506 55.28774339 31.34416762 49.4296875 31.29296875 C47.53826231 31.2873649 45.64683273 31.28309853 43.75540161 31.28010559 C38.80700395 31.26871893 33.85887564 31.23930572 28.9105835 31.20599365 C23.84928021 31.17515873 18.78793289 31.16157171 13.7265625 31.14648438 C3.81759079 31.11442946 -6.0911821 31.06330886 -16 31 C-16 29.35 -16 27.7 -16 26 C-15.34 26 -14.68 26 -14 26 C-13.87625 25.278125 -13.7525 24.55625 -13.625 23.8125 C-13.0095069 21.04278106 -12.11555626 18.6029646 -11 16 C-10.34 16 -9.68 16 -9 16 C-9.33 13.69 -9.66 11.38 -10 9 C-8.33333333 9 -6.66666667 9 -5 9 C-5.061875 8.071875 -5.12375 7.14375 -5.1875 6.1875 C-5 3 -5 3 -3.625 1.125 C-2 0 -2 0 0 0 Z " fill="#CA2C33" transform="translate(340,304)"/>
<path d="M0 0 C0.33 0 0.66 0 1 0 C1.25650515 7.69515439 1.25650515 7.69515439 -1 12 C-2.68508135 18.1786316 -3.31600316 24.47571939 -3.75390625 30.84765625 C-4 33 -4 33 -5 34 C-5.23427778 36.01594582 -5.41336124 38.038474 -5.5625 40.0625 C-5.68818359 41.71958984 -5.68818359 41.71958984 -5.81640625 43.41015625 C-5.87699219 44.26480469 -5.93757813 45.11945313 -6 46 C-5.34 46 -4.68 46 -4 46 C-4 45.01 -4 44.02 -4 43 C-3.34 43 -2.68 43 -2 43 C-1.67 41.68 -1.34 40.36 -1 39 C-0.34 39 0.32 39 1 39 C-0.04673337 41.84415431 -1.22023933 44.38566796 -2.7265625 47.0234375 C-7.79687605 55.97473179 -8.83659021 62.58552438 -8 73 C-7.94070312 74.26199219 -7.88140625 75.52398437 -7.8203125 76.82421875 C-7.40131943 84.97782394 -6.39664514 92.95912068 -5 101 C-5.99 101.495 -5.99 101.495 -7 102 C-10.50762961 89.46959989 -10.71155561 76.93059533 -11 64 C-11.66 63.67 -12.32 63.34 -13 63 C-12.87665283 62.35023193 -12.75330566 61.70046387 -12.6262207 61.03100586 C-11.49723786 54.97017889 -10.52982943 48.9040981 -9.65576172 42.80175781 C-7.55259103 28.2528169 -4.83073005 13.91604804 0 0 Z " fill="#BA4045" transform="translate(87,164)"/>
<path d="M0 0 C5.51227394 0.47519603 9.05432116 1.4241256 14 4 C16.65039392 4.79029928 19.2984068 5.39447049 22 6 C22 6.66 22 7.32 22 8 C25.91599535 8.79501066 29.83291591 9.58537263 33.75 10.375 C34.84183594 10.59671875 35.93367188 10.8184375 37.05859375 11.046875 C43.60211726 12.36332352 50.14489053 13.54758656 56.74316406 14.55712891 C59 15 59 15 60 16 C62.34152841 16.12484154 64.65507585 16.18599291 66.99829102 16.20532227 C68.09578674 16.22017166 68.09578674 16.22017166 69.2154541 16.23532104 C71.64490472 16.26702383 74.07437493 16.29172793 76.50390625 16.31640625 C78.18400087 16.33696822 79.86409023 16.35796448 81.54417419 16.37937927 C85.97467803 16.43467826 90.40522915 16.48405287 94.83581543 16.53222656 C99.35347725 16.5823846 103.87107008 16.63810033 108.38867188 16.69335938 C117.2590557 16.8010366 126.12949932 16.90246018 135 17 C135 17.33 135 17.66 135 18 C126.96458777 19.01055732 119.00971751 19.16084355 110.91796875 19.16796875 C109.57334866 19.17119285 108.2287289 19.17455772 106.8841095 19.17805481 C104.07955107 19.18400382 101.27502326 19.18589908 98.47045898 19.18530273 C94.91388166 19.18520131 91.35750481 19.1988527 87.80097485 19.21607494 C85.02707555 19.22730738 82.25322304 19.22921854 79.47930336 19.22869301 C77.54259884 19.23041355 75.60590891 19.24117846 73.66923523 19.25224304 C62.08982792 19.22275237 51.04574063 17.46200322 39.8125 14.75 C38.92320801 14.53601563 38.03391602 14.32203125 37.11767578 14.1015625 C24.31195232 10.9325728 11.83097223 6.88942671 0 1 C0 0.67 0 0.34 0 0 Z " fill="#A4252C" transform="translate(192,398)"/>
<path d="M0 0 C0.99 0.33 1.98 0.66 3 1 C3 1.99 3 2.98 3 4 C31.05 4 59.1 4 88 4 C86.875 10.75 86.875 10.75 84 14 C84.33 11.36 84.66 8.72 85 6 C59.26 6 33.52 6 7 6 C7 6.66 7 7.32 7 8 C7.66 8 8.32 8 9 8 C9.33 9.98 9.66 11.96 10 14 C7.66475218 11.74259377 5.81294927 9.7194239 4 7 C-0.455 7.495 -0.455 7.495 -5 8 C-4.67 7.01 -4.34 6.02 -4 5 C-2.35 5 -0.7 5 1 5 C0.67 3.35 0.34 1.7 0 0 Z " fill="#81191F" transform="translate(456,116)"/>
<path d="M0 0 C0.6875 1.8125 0.6875 1.8125 1 4 C-0.3125 5.5625 -0.3125 5.5625 -2 7 C-2.66 7.99 -3.32 8.98 -4 10 C-4.66 10 -5.32 10 -6 10 C-6.0825 10.598125 -6.165 11.19625 -6.25 11.8125 C-7.21576779 14.62932273 -8.48868567 15.47799132 -11 17 C-11.66 17 -12.32 17 -13 17 C-13.495 18.485 -13.495 18.485 -14 20 C-16 21 -16 21 -19 22 C-19.67675781 22.24878906 -20.35351562 22.49757813 -21.05078125 22.75390625 C-28.88955695 25.5563701 -36.45115483 26.15229071 -44.7109375 26.11352539 C-45.95627007 26.11374443 -45.95627007 26.11374443 -47.22676086 26.1139679 C-49.94286812 26.11327695 -52.65890488 26.10552322 -55.375 26.09765625 C-57.26928673 26.09578916 -59.16357394 26.09436663 -61.05786133 26.09336853 C-66.02261712 26.08956626 -70.98734326 26.07975571 -75.9520874 26.06866455 C-81.02664794 26.05840101 -86.10121331 26.05386035 -91.17578125 26.04882812 C-101.11720047 26.03813123 -111.05859776 26.02108255 -121 26 C-120.70286323 24.56277054 -120.39958752 23.1268094 -120.09375 21.69140625 C-119.92552734 20.89162354 -119.75730469 20.09184082 -119.58398438 19.26782227 C-118.85785539 16.44800112 -117.78135107 14.3009118 -116 12 C-115.34 12 -114.68 12 -114 12 C-114.45445964 13.41791408 -114.91374944 14.83428046 -115.375 16.25 C-115.63023437 17.03890625 -115.88546875 17.8278125 -116.1484375 18.640625 C-116.9525118 20.86842719 -117.92373305 22.89409139 -119 25 C-108.74187975 24.91535456 -98.48391092 24.82037867 -88.22600746 24.71247292 C-83.46206153 24.66267872 -78.69813597 24.6163481 -73.93408203 24.578125 C-69.33038859 24.54105786 -64.72687299 24.49464178 -60.12333298 24.44193649 C-58.37324541 24.42350576 -56.62311989 24.40835675 -54.8729744 24.39665604 C-42.80973219 24.3131717 -31.84053105 24.02852461 -20.9375 18.375 C-20.25139648 18.02453613 -19.56529297 17.67407227 -18.85839844 17.31298828 C-10.9261142 13.11056535 -4.50831833 7.84055362 0 0 Z " fill="#8D4041" transform="translate(297,308)"/>
<path d="M0 0 C1.907164 0.00306381 3.81433026 0.0049352 5.72149658 0.00567627 C9.68844364 0.01024686 13.655184 0.02455807 17.62207031 0.046875 C22.71658593 0.07538755 27.81094115 0.08611318 32.90552902 0.0905571 C36.82930104 0.09469981 40.75304049 0.10450385 44.67679596 0.11643219 C46.55715932 0.12213868 48.43752581 0.12689614 50.31789398 0.13069916 C52.92910881 0.13753269 55.54019352 0.15114488 58.15136719 0.16699219 C58.93151184 0.16811005 59.71165649 0.16922791 60.51544189 0.17037964 C65.83841952 0.21341952 65.83841952 0.21341952 66.953125 1.328125 C67.41877629 5.33272608 67.06341301 7.12960659 65.078125 10.703125 C64.02625 12.0025 64.02625 12.0025 62.953125 13.328125 C62.293125 13.328125 61.633125 13.328125 60.953125 13.328125 C60.74816406 13.95460937 60.54320312 14.58109375 60.33203125 15.2265625 C60.06261719 16.04382813 59.79320312 16.86109375 59.515625 17.703125 C59.24878906 18.51523438 58.98195313 19.32734375 58.70703125 20.1640625 C57.953125 22.328125 57.953125 22.328125 56.953125 24.328125 C56.293125 24.328125 55.633125 24.328125 54.953125 24.328125 C54.458125 25.813125 54.458125 25.813125 53.953125 27.328125 C53.293125 27.328125 52.633125 27.328125 51.953125 27.328125 C53.37382906 23.63833437 54.99389828 20.11222896 56.765625 16.578125 C57.48685547 15.13179687 57.48685547 15.13179687 58.22265625 13.65625 C59.62939013 10.95074826 61.07716738 8.28324748 62.5612793 5.62011719 C63.00972702 4.81483582 63.45817474 4.00955444 63.92021179 3.17987061 C64.26107315 2.56879456 64.60193451 1.95771851 64.953125 1.328125 C54.35558037 1.36634079 43.75838467 1.42593154 33.16111469 1.51202774 C28.23915175 1.55136074 23.31736393 1.58361825 18.39526367 1.59912109 C13.63582176 1.6143817 8.87686175 1.64899169 4.11763573 1.69643402 C2.3114258 1.71115155 0.50514703 1.71916042 -1.30112267 1.72000885 C-12.0545329 1.73013001 -20.88937411 2.54118153 -31.046875 6.328125 C-32.37470708 6.68273865 -33.7062576 7.02541412 -35.046875 7.328125 C-34.38262939 5.43621826 -34.38262939 5.43621826 -33.046875 3.328125 C-22.9814282 -1.13625398 -10.74639001 -0.07599015 0 0 Z " fill="#934147" transform="translate(330.046875,119.671875)"/>
<path d="M0 0 C0.93423645 3.01031744 1.04449911 3.86650268 0 7 C28.05 7 56.1 7 85 7 C80.648294 9.175853 77.54520187 9.27097513 72.83496094 9.22705078 C71.60513489 9.22748886 71.60513489 9.22748886 70.35046387 9.22793579 C67.64499263 9.22654432 64.93979803 9.2109917 62.234375 9.1953125 C60.35679271 9.19158172 58.47920847 9.18873506 56.60162354 9.18673706 C51.66307182 9.17910571 46.72463799 9.15946145 41.78613281 9.1373291 C36.74545893 9.11685998 31.70476598 9.10773306 26.6640625 9.09765625 C16.77598991 9.07621513 6.88800476 9.04208514 -3 9 C-2.25561083 5.8614943 -1.24162641 2.97990339 0 0 Z " fill="#8A1F24" transform="translate(23,325)"/>
<path d="M0 0 C0.66 0 1.32 0 2 0 C0.69416206 4.2173555 -0.91328005 8.00955886 -2.96875 11.9140625 C-3.53980469 13.00460938 -4.11085938 14.09515625 -4.69921875 15.21875 C-5.29347656 16.3428125 -5.88773438 17.466875 -6.5 18.625 C-7.67723446 20.86710815 -8.8543239 23.10929246 -10.03125 25.3515625 C-10.81338867 26.83390381 -10.81338867 26.83390381 -11.61132812 28.34619141 C-12.45982004 29.96769405 -13.26701068 31.61279213 -13.99804688 33.29052734 C-15 35 -15 35 -18 36 C-18.33 36.99 -18.66 37.98 -19 39 C-19.66 39 -20.32 39 -21 39 C-21 39.99 -21 40.98 -21 42 C-21.66 42 -22.32 42 -23 42 C-23.86005293 30.18860639 -23.86005293 30.18860639 -20.8125 26.3125 C-17.99941475 23.99951879 -16.60547802 23.09744535 -13 23 C-12.34 23.33 -11.68 23.66 -11 24 C-11 22.68 -11 21.36 -11 20 C-10.34 20 -9.68 20 -9 20 C-8.67 18.35 -8.34 16.7 -8 15 C-7.34 15 -6.68 15 -6 15 C-5.87625 14.29875 -5.7525 13.5975 -5.625 12.875 C-4.96161655 9.82343613 -4.02788045 6.94659062 -3 4 C-2.34 4 -1.68 4 -1 4 C-0.67 2.68 -0.34 1.36 0 0 Z " fill="#E3222A" transform="translate(104,168)"/>
<path d="M0 0 C2.77042109 2.77042109 2.39796106 4.76533805 2.625 8.625 C2.69976562 9.81351563 2.77453125 11.00203125 2.8515625 12.2265625 C2.92503906 13.59941406 2.92503906 13.59941406 3 15 C3.66 15 4.32 15 5 15 C5 14.01 5 13.02 5 12 C5.66 12 6.32 12 7 12 C6.45276317 15.37462715 5.9451 17.08235 4 20 C3.67893653 22.98624756 3.67893653 22.98624756 3.69140625 26.40625 C3.66828369 27.69958252 3.64516113 28.99291504 3.62133789 30.32543945 C3.61216339 31.00788727 3.60298889 31.69033508 3.59353638 32.39346313 C3.44574264 42.42469032 3.1728456 52.39046918 1.5625 62.3125 C1.44011963 63.08078125 1.31773926 63.8490625 1.19165039 64.640625 C0.28367127 69.71632873 0.28367127 69.71632873 -2 72 C-2.1863253 66.22391571 -1.7320636 61.21638939 -0.51171875 55.58203125 C1.35603491 46.15771697 1.1161173 36.56032442 1 27 C0.74605469 27.75925781 0.49210937 28.51851562 0.23046875 29.30078125 C-0.11371094 30.29464844 -0.45789063 31.28851563 -0.8125 32.3125 C-1.14894531 33.29863281 -1.48539062 34.28476563 -1.83203125 35.30078125 C-2.95078823 37.88626979 -3.78563015 39.29708566 -6 41 C-6.66 41 -7.32 41 -8 41 C-6.69658571 37.50447985 -5.10360805 34.269995 -3.33398438 30.98828125 C0.51930558 23.75257181 1.86368297 19.1820978 0.5 11 C-0.12140689 7.27155867 -0.06513317 3.77772393 0 0 Z " fill="#943034" transform="translate(492,196)"/>
<path d="M0 0 C0.66 0 1.32 0 2 0 C0.49916787 5.09324945 -1.72375543 9.49067673 -4.25 14.125 C-5.07008723 15.65046326 -5.88909565 17.17650698 -6.70703125 18.703125 C-7.1035791 19.44240234 -7.50012695 20.18167969 -7.90869141 20.94335938 C-9.29941767 23.56427169 -10.62569675 26.21380602 -11.9375 28.875 C-14.56804122 34.1875176 -17.30330734 39.4410263 -20.0625 44.6875 C-20.4742749 45.4717334 -20.8860498 46.2559668 -21.31030273 47.06396484 C-24.13347925 52.41770241 -27.04029164 57.72058389 -30 63 C-31.24546405 60.50907189 -30.7767578 59.58919267 -30 57 C-29.34 57 -28.68 57 -28 57 C-27.34 54.03 -26.68 51.06 -26 48 C-25.34 48 -24.68 48 -24 48 C-24 46.68 -24 45.36 -24 44 C-23.01 43.34 -22.02 42.68 -21 42 C-20.26656572 38.93443402 -20.26656572 38.93443402 -20 36 C-19.34 36 -18.68 36 -18 36 C-17.731875 35.46375 -17.46375 34.9275 -17.1875 34.375 C-16.29574572 32.59149144 -15.37391916 30.82296802 -14.4375 29.0625 C-13.13920486 26.29656688 -12.44164421 24.00318063 -12 21 C-11.34 21 -10.68 21 -10 21 C-10 19.68 -10 18.36 -10 17 C-9.34 17 -8.68 17 -8 17 C-8 15.68 -8 14.36 -8 13 C-7.34 13 -6.68 13 -6 13 C-6 12.34 -6 11.68 -6 11 C-5.34 11 -4.68 11 -4 11 C-3.79503906 10.37351563 -3.59007812 9.74703125 -3.37890625 9.1015625 C-3.10949219 8.28429687 -2.84007812 7.46703125 -2.5625 6.625 C-2.29566406 5.81289062 -2.02882812 5.00078125 -1.75390625 4.1640625 C-1 2 -1 2 0 0 Z " fill="#B63E45" transform="translate(231,224)"/>
<path d="M0 0 C1 3 1 3 0.32250977 4.73901367 C-0.05075439 5.37556885 -0.42401855 6.01212402 -0.80859375 6.66796875 C-1.22189941 7.38815186 -1.63520508 8.10833496 -2.06103516 8.8503418 C-2.51526855 9.621604 -2.96950195 10.39286621 -3.4375 11.1875 C-4.37388105 12.82132236 -5.30742833 14.45677174 -6.23828125 16.09375 C-6.94138428 17.32931641 -6.94138428 17.32931641 -7.65869141 18.58984375 C-9.59437819 22.06801992 -11.37311711 25.6140495 -13.125 29.1875 C-16.05771926 35.15156093 -19.11628939 41.03255157 -22.26416016 46.88574219 C-24.59269123 51.21936469 -26.8361563 55.58215245 -29 60 C-29.33 58.68 -29.66 57.36 -30 56 C-29.34 56 -28.68 56 -28 56 C-27.24572703 51.02093741 -27.24572703 51.02093741 -27 46 C-25.02 45.505 -25.02 45.505 -23 45 C-23 43.35 -23 41.7 -23 40 C-22.01 40 -21.02 40 -20 40 C-19.67 37.36 -19.34 34.72 -19 32 C-18.34 32 -17.68 32 -17 32 C-17 31.01 -17 30.02 -17 29 C-16.34 29 -15.68 29 -15 29 C-15 27.68 -15 26.36 -15 25 C-14.02246356 23.97803008 -13.0194119 22.98020375 -12 22 C-10.80972016 19.40084462 -10.80972016 19.40084462 -10 17 C-9.34 17 -8.68 17 -8 17 C-7.90847656 16.30519531 -7.81695312 15.61039063 -7.72265625 14.89453125 C-6.84484502 11.3785414 -5.30948033 8.78477654 -3.4375 5.6875 C-2.47650391 4.08455078 -2.47650391 4.08455078 -1.49609375 2.44921875 C-1.00238281 1.64097656 -0.50867188 0.83273438 0 0 Z " fill="#BA3E43" transform="translate(272,147)"/>
<path d="M0 0 C0.33 0 0.66 0 1 0 C1.20716286 3.72893152 0.7261971 5.73940548 -1 9 C-1.268125 10.051875 -1.53625 11.10375 -1.8125 12.1875 C-3.27022886 16.86757687 -5.5063161 20.80261603 -8 25 C-8.66 25 -9.32 25 -10 25 C-10 26.32 -10 27.64 -10 29 C-10.66 29 -11.32 29 -12 29 C-12 29.99 -12 30.98 -12 32 C-12.99 32 -13.98 32 -15 32 C-15.66 33.98 -16.32 35.96 -17 38 C-17.66 38 -18.32 38 -19 38 C-17.39960375 33.78589127 -15.46241204 29.77208556 -13.4375 25.75 C-13.09396484 25.06486328 -12.75042969 24.37972656 -12.39648438 23.67382812 C-8.38637289 15.71840049 -4.20033425 7.85618072 0 0 Z " fill="#B3252D" transform="translate(43,286)"/>
<path d="M0 0 C2.31 0 4.62 0 7 0 C6.43667969 0.27585937 5.87335938 0.55171875 5.29296875 0.8359375 C-13.37076875 10.31088431 -22.22797209 23.63570262 -31 42 C-31.93423645 38.98968256 -32.04449911 38.13349732 -31 35 C-30.34 35 -29.68 35 -29 35 C-29 33.68 -29 32.36 -29 31 C-28.34 31 -27.68 31 -27 31 C-27 29.68 -27 28.36 -27 27 C-26.34 27 -25.68 27 -25 27 C-25 25.35 -25 23.7 -25 22 C-24.38125 21.7525 -23.7625 21.505 -23.125 21.25 C-20.5927804 19.76045906 -20.19281342 18.62418952 -19 16 C-18.484375 15.505 -17.96875 15.01 -17.4375 14.5 C-15.73683989 12.72539815 -15.41205818 11.38993744 -15 9 C-14.01 9 -13.02 9 -12 9 C-12 8.34 -12 7.68 -12 7 C-10.68 7 -9.36 7 -8 7 C-7.67 6.01 -7.34 5.02 -7 4 C-3.4375 2.8125 -3.4375 2.8125 0 2 C0 1.34 0 0.68 0 0 Z " fill="#BD3941" transform="translate(444,124)"/>
<path d="M0 0 C0.6875 1.8125 0.6875 1.8125 1 4 C-0.3125 5.5625 -0.3125 5.5625 -2 7 C-2.66 7.99 -3.32 8.98 -4 10 C-4.66 10 -5.32 10 -6 10 C-6.0825 10.598125 -6.165 11.19625 -6.25 11.8125 C-7.21576779 14.62932273 -8.48868567 15.47799132 -11 17 C-11.66 17 -12.32 17 -13 17 C-13.33 17.99 -13.66 18.98 -14 20 C-16 21 -16 21 -19 22 C-19.96292969 22.39058594 -19.96292969 22.39058594 -20.9453125 22.7890625 C-27.03995602 25.12643475 -32.51907265 25.32707484 -39 25 C-39 24.67 -39 24.34 -39 24 C-38.195625 23.92265625 -38.195625 23.92265625 -37.375 23.84375 C-24.32959874 21.95559982 -10.68688987 14.61051572 -2.57421875 4.1640625 C-1.65376762 2.81659796 -0.81342347 1.41464951 0 0 Z " fill="#C7343D" transform="translate(297,308)"/>
<path d="M0 0 C2.0625 0.4375 2.0625 0.4375 4 1 C-1.9295334 4.39444455 -6.11262406 5.57838453 -12.89453125 5.45410156 C-13.7442601 5.45468567 -14.59398895 5.45526978 -15.46946716 5.45587158 C-18.25090792 5.4531065 -21.03124873 5.42209025 -23.8125 5.390625 C-25.75162165 5.38315698 -27.69075089 5.3774667 -29.62988281 5.37347412 C-34.71320738 5.35826195 -39.7960688 5.31901843 -44.87921143 5.2746582 C-50.07435848 5.23360993 -55.26958098 5.21544274 -60.46484375 5.1953125 C-70.64343173 5.15251972 -80.82167723 5.08432222 -91 5 C-91 4.67 -91 4.34 -91 4 C-90.00521133 3.99191315 -89.01042267 3.98382629 -87.98548889 3.97549438 C-78.58456535 3.89781894 -69.18378274 3.81002656 -59.78304386 3.71247292 C-54.95068768 3.66264771 -50.11835191 3.61631698 -45.28588867 3.578125 C-40.61736207 3.54109752 -35.94901217 3.49469136 -31.28063774 3.44193649 C-29.50460363 3.42348494 -27.72853177 3.40834335 -25.95244026 3.39665604 C-23.45387011 3.3796343 -20.95569657 3.35056319 -18.45727539 3.31884766 C-17.73222305 3.31668747 -17.00717072 3.31452728 -16.26014709 3.31230164 C-7.53255309 3.35456757 -7.53255309 3.35456757 0 0 Z " fill="#8D4142" transform="translate(418,329)"/>
<path d="M0 0 C1.67241667 2.508625 3.03198074 4.92509413 4.390625 7.60546875 C4.85339844 8.50716797 5.31617187 9.40886719 5.79296875 10.33789062 C6.75317053 12.21581878 7.7090104 14.09598457 8.66015625 15.97851562 C11.63785441 21.7575469 14.90458703 26.94736979 19 32 C23.3177458 31.49202991 27.03302114 30.80317221 31 29 C30 32 30 32 28.1796875 32.94921875 C23.24482262 34.53004835 19.18102823 35.33070393 14 35 C14.99 34.505 14.99 34.505 16 34 C15.23499269 30.91342374 15.23499269 30.91342374 12.9375 29.0625 C11 27 11 27 11 23 C10.34 23 9.68 23 9 23 C6.81861657 19.81881583 5.38398237 16.58207201 4 13 C2.94187697 10.72442267 1.88119355 8.45054261 0.8046875 6.18359375 C0 4 0 4 0 0 Z " fill="#B94247" transform="translate(92,297)"/>
<path d="M0 0 C0.83154245 2.32831887 1.12153694 3.6110818 0.375 6 C-1 8 -1 8 -3.3125 9.6875 C-6.48389085 12.41637119 -7.83266795 15.14929573 -9.734375 18.8203125 C-11.39302005 21.67686787 -13.64357876 23.7090349 -16 26 C-16.86119134 28.17346568 -16.86119134 28.17346568 -17 30 C-17.99 30 -18.98 30 -20 30 C-15.67518789 18.54838484 -7.81810795 9.23958213 0 0 Z " fill="#7A1D21" transform="translate(120,109)"/>
<path d="M0 0 C27.06 0 54.12 0 82 0 C80 5 80 5 78 7 C78.33 5.02 78.66 3.04 79 1 C52.93 1 26.86 1 0 1 C0 0.67 0 0.34 0 0 Z " fill="#F7D9DC" transform="translate(157,121)"/>
<path d="M0 0 C0.99 0.33 1.98 0.66 3 1 C4.14143464 3.35718144 5.09701454 5.61600204 6 8.0625 C6.39409058 9.0848877 6.39409058 9.0848877 6.79614258 10.12792969 C8.14775935 13.64994319 9.42674433 17.19453561 10.6875 20.75 C11.71823629 23.91765255 11.71823629 23.91765255 13.51171875 25.5 C18.90843079 30.93920583 17.64041378 42.73257327 18 50 C16.08507237 46.59661333 15.23058263 43.22199445 14.3125 39.4375 C10.86336538 25.88262062 5.55135283 12.81671783 0 0 Z " fill="#AB3F43" transform="translate(474,144)"/>
<path d="M0 0 C0.58203125 1.86328125 0.58203125 1.86328125 1 4 C0 5.66666667 -1 7.33333333 -2 9 C-2.28550258 10.34712866 -2.53157773 11.70288275 -2.75 13.0625 C-3.9922484 19.3053246 -7.13717797 24.97996124 -11 30 C-13.2265625 30.84375 -13.2265625 30.84375 -15 31 C-13.48036782 25.82017847 -11.19147807 21.33859697 -8.625 16.625 C-7.84542533 15.18018828 -7.06677518 13.73487734 -6.2890625 12.2890625 C-5.91040039 11.58555664 -5.53173828 10.88205078 -5.14160156 10.15722656 C-3.36581254 6.80160813 -1.68242848 3.40326856 0 0 Z " fill="#942227" transform="translate(71,232)"/>
<path d="M0 0 C2.00240549 0.31856451 4.00211562 0.65421232 6 1 C6.721875 1.103125 7.44375 1.20625 8.1875 1.3125 C10.72058429 2.27332508 11.61837811 3.72032389 13 6 C13 6.66 13 7.32 13 8 C14.32 8 15.64 8 17 8 C17.33 8.66 17.66 9.32 18 10 C19.7155805 10.75881445 21.43406663 11.51232384 23.171875 12.21875 C25.60048905 13.25661925 27.76197001 14.60123126 30 16 C31.24932306 16.68872938 32.49935652 17.37617126 33.75 18.0625 C37 20 37 20 38 22 C30.86089526 19.7902771 24.79775917 16.33153057 18.4453125 12.47265625 C16.45985851 11.27694354 14.46282867 10.12570593 12.4375 9 C8.17585788 6.52049913 3.97174719 3.92702457 0 1 C0 0.67 0 0.34 0 0 Z " fill="#A1262D" transform="translate(154,376)"/>
<path d="M0 0 C0.82683893 2.36849346 1.10792077 3.64776779 0.36328125 6.078125 C0.01652344 6.79484375 -0.33023438 7.5115625 -0.6875 8.25 C-1.05875 9.03246094 -1.43 9.81492188 -1.8125 10.62109375 C-3.24182298 13.48444144 -4.67767296 16.34362551 -6.16796875 19.17578125 C-7.04298689 21.09424825 -7.55062937 22.94378895 -8 25 C-8.66 25 -9.32 25 -10 25 C-10.33 26.65 -10.66 28.3 -11 30 C-12.32 30.33 -13.64 30.66 -15 31 C-15 31.99 -15 32.98 -15 34 C-15.66 34 -16.32 34 -17 34 C-15.57160013 30.2530194 -13.89106271 26.73511187 -12.03125 23.18359375 C-11.46019531 22.08982422 -10.88914063 20.99605469 -10.30078125 19.86914062 C-9.40939453 18.17047852 -9.40939453 18.17047852 -8.5 16.4375 C-7.3226928 14.18631498 -6.14560045 11.93501758 -4.96875 9.68359375 C-4.44732422 8.68900146 -3.92589844 7.69440918 -3.38867188 6.66967773 C-2.23739066 4.45637602 -1.10704442 2.23565895 0 0 Z " fill="#B84147" transform="translate(229,139)"/>
<path d="M0 0 C1 3 1 3 -0.1171875 5.25 C-0.69726562 6.1575 -1.27734375 7.065 -1.875 8 C-5.6605499 14.21315705 -8.76378109 20.62969638 -11.80224609 27.23632812 C-13.99233153 31.97346024 -16.34259946 36.50701354 -19 41 C-20.01106962 38.3528359 -20.0975873 37.25693871 -19.07421875 34.5625 C-18.38779297 33.2940625 -18.38779297 33.2940625 -17.6875 32 C-17.23761719 31.154375 -16.78773438 30.30875 -16.32421875 29.4375 C-15.88722656 28.633125 -15.45023437 27.82875 -15 27 C-14.32794436 25.66937479 -13.6592284 24.33702661 -13 23 C-12.34 23 -11.68 23 -11 23 C-10.855625 22.278125 -10.71125 21.55625 -10.5625 20.8125 C-10.04166667 18.20833333 -9.52083333 15.60416667 -9 13 C-8.34 13 -7.68 13 -7 13 C-6.67 11.68 -6.34 10.36 -6 9 C-5.34 9 -4.68 9 -4 9 C-3.67 7.02 -3.34 5.04 -3 3 C-2.34 3 -1.68 3 -1 3 C-0.67 2.01 -0.34 1.02 0 0 Z " fill="#B54146" transform="translate(376,233)"/>
<path d="M0 0 C0.66 0.33 1.32 0.66 2 1 C2.50130606 6.26371362 1.31168629 8.9090934 -2 13 C-2.66 13 -3.32 13 -4 13 C-4.20496094 13.62648437 -4.40992188 14.25296875 -4.62109375 14.8984375 C-4.89050781 15.71570313 -5.15992188 16.53296875 -5.4375 17.375 C-5.70433594 18.18710938 -5.97117187 18.99921875 -6.24609375 19.8359375 C-7 22 -7 22 -8 24 C-8.66 24 -9.32 24 -10 24 C-10.33 24.99 -10.66 25.98 -11 27 C-11.66 27 -12.32 27 -13 27 C-11.58720454 23.32405352 -9.96521231 19.82570981 -8.1875 16.3125 C-7.66285156 15.27222656 -7.13820313 14.23195312 -6.59765625 13.16015625 C-6.07042969 12.11730469 -5.54320312 11.07445312 -5 10 C-4.04067009 8.08383195 -3.0822423 6.16721179 -2.125 4.25 C-1.0625 2.125 -1.0625 2.125 0 0 Z " fill="#B1494A" transform="translate(395,120)"/>
<path d="M0 0 C0.66 0 1.32 0 2 0 C0.69416206 4.2173555 -0.91328005 8.00955886 -2.96875 11.9140625 C-3.53980469 13.00460938 -4.11085938 14.09515625 -4.69921875 15.21875 C-5.29347656 16.3428125 -5.88773438 17.466875 -6.5 18.625 C-7.67723446 20.86710815 -8.8543239 23.10929246 -10.03125 25.3515625 C-10.81338867 26.83390381 -10.81338867 26.83390381 -11.61132812 28.34619141 C-12.76599444 30.55280583 -13.8960882 32.76768916 -15 35 C-16.09658936 31.71023192 -15.79953138 30.28696233 -15 27 C-14.34 27 -13.68 27 -13 27 C-13 26.01 -13 25.02 -13 24 C-12.34 24 -11.68 24 -11 24 C-11 22.68 -11 21.36 -11 20 C-10.34 20 -9.68 20 -9 20 C-8.67 18.35 -8.34 16.7 -8 15 C-7.34 15 -6.68 15 -6 15 C-5.87625 14.29875 -5.7525 13.5975 -5.625 12.875 C-4.96161655 9.82343613 -4.02788045 6.94659062 -3 4 C-2.34 4 -1.68 4 -1 4 C-0.67 2.68 -0.34 1.36 0 0 Z " fill="#B93F43" transform="translate(104,168)"/>
<path d="M0 0 C-0.0625 1.75 -0.0625 1.75 -1 4 C-4.67238347 6.86059344 -7.29553866 8 -12 8 C-12 8.66 -12 9.32 -12 10 C-13.4096347 10.70180531 -14.82807641 11.38593958 -16.25 12.0625 C-17.03890625 12.44535156 -17.8278125 12.82820313 -18.640625 13.22265625 C-21.31032626 14.10224325 -22.37312137 13.77788565 -25 13 C-22.29363125 11.39250173 -19.5845582 9.78961541 -16.875 8.1875 C-16.11445313 7.73568359 -15.35390625 7.28386719 -14.5703125 6.81835938 C-3.0238937 0 -3.0238937 0 0 0 Z " fill="#9F2127" transform="translate(189,57)"/>
<path d="M0 0 C0.97919756 3.07550784 0.98561151 5.02444072 0.125 8.125 C-0.05804688 8.80820313 -0.24109375 9.49140625 -0.4296875 10.1953125 C-1 12 -1 12 -2 14 C-2.99 14.33 -3.98 14.66 -5 15 C-5.33 15.99 -5.66 16.98 -6 18 C-6.66 18 -7.32 18 -8 18 C-8.66 21.63 -9.32 25.26 -10 29 C-10.99 29 -11.98 29 -13 29 C-13 29.66 -13 30.32 -13 31 C-13.66 31 -14.32 31 -15 31 C-13.45199008 25.53386327 -10.87387401 20.95096419 -8.0625 16.0625 C-5.04867776 10.80256861 -2.27002591 5.62636785 0 0 Z " fill="#BD444B" transform="translate(206,183)"/>
<path d="M0 0 C0.99 0.33 1.98 0.66 3 1 C1.36556782 3.11454663 -0.27345354 5.22531014 -1.91796875 7.33203125 C-3.34308581 9.15821315 -4.76207338 10.9891904 -6.17578125 12.82421875 C-6.88089844 13.72785156 -7.58601563 14.63148438 -8.3125 15.5625 C-8.96863281 16.40941406 -9.62476563 17.25632812 -10.30078125 18.12890625 C-10.86152344 18.74636719 -11.42226563 19.36382812 -12 20 C-12.66 20 -13.32 20 -14 20 C-13.67 18.35 -13.34 16.7 -13 15 C-12.01 14.67 -11.02 14.34 -10 14 C-10.37125 13.13375 -10.37125 13.13375 -10.75 12.25 C-11 10 -11 10 -9.3125 7.8125 C-7.03882391 6.03042955 -5.75173856 5.56932522 -3 5 C-2.67 4.34 -2.34 3.68 -2 3 C-1.34 3 -0.68 3 0 3 C0 2.01 0 1.02 0 0 Z " fill="#CE222B" transform="translate(457,333)"/>
<path d="M0 0 C-1.45036914 4.86963317 -3.50218712 9.07622063 -5.9375 13.5 C-10.86025349 21.36512432 -10.86025349 21.36512432 -13 30 C-13.66 30 -14.32 30 -15 30 C-14.46148032 24.72250715 -13.22656164 20.74354436 -11 16 C-10.34 16 -9.68 16 -9 16 C-9.33 13.69 -9.66 11.38 -10 9 C-8.33333333 9 -6.66666667 9 -5 9 C-5.061875 8.071875 -5.12375 7.14375 -5.1875 6.1875 C-5 3 -5 3 -3.625 1.125 C-2 0 -2 0 0 0 Z " fill="#BE363D" transform="translate(340,304)"/>
<path d="M0 0 C0.33 0 0.66 0 1 0 C1 6.93 1 13.86 1 21 C1.66 21.33 2.32 21.66 3 22 C1.625 24.5 1.625 24.5 0 27 C-0.66 27 -1.32 27 -2 27 C-2.33 29.31 -2.66 31.62 -3 34 C-3.66 33.67 -4.32 33.34 -5 33 C-4.89042969 32.46117187 -4.78085938 31.92234375 -4.66796875 31.3671875 C-2.66569972 20.98143433 -1.38428267 10.48198814 0 0 Z " fill="#942A30" transform="translate(79,194)"/>
<path d="M0 0 C0.66 0.33 1.32 0.66 2 1 C1.59160889 1.78648926 1.18321777 2.57297852 0.76245117 3.38330078 C-0.76427544 6.32403246 -2.29059652 9.26497388 -3.81665039 12.20605469 C-4.47501861 13.47469264 -5.13354455 14.74324876 -5.79223633 16.01171875 C-6.74342477 17.84353056 -7.69403033 19.67564386 -8.64453125 21.5078125 C-9.21534424 22.60754395 -9.78615723 23.70727539 -10.37426758 24.84033203 C-11.93946135 27.88234101 -13.47652926 30.93691578 -15 34 C-16.21858131 31.09361354 -16.02966447 30.07317892 -14.8203125 27.08984375 C-14.26085937 26.04957031 -13.70140625 25.00929687 -13.125 23.9375 C-10.80333008 19.580526 -10.80333008 19.580526 -9 15 C-8.34 15 -7.68 15 -7 15 C-6.8865625 14.27296875 -6.773125 13.5459375 -6.65625 12.796875 C-5.97659561 9.90025271 -4.98218892 7.81797848 -3.5 5.25 C-3.0565625 4.47140625 -2.613125 3.6928125 -2.15625 2.890625 C-1 1 -1 1 0 0 Z " fill="#B43E42" transform="translate(396,194)"/>
<path d="M0 0 C0.625 1.8125 0.625 1.8125 1 4 C0.01 5.485 0.01 5.485 -1 7 C-0.938125 8.485 -0.938125 8.485 -0.875 10 C-1 13 -1 13 -2.875 14.875 C-5 16 -5 16 -7 16 C-7.226875 16.639375 -7.45375 17.27875 -7.6875 17.9375 C-9.48565826 22.13320261 -11.73904021 26.03900556 -14 30 C-14.33 29.34 -14.66 28.68 -15 28 C-14.06640625 25.9609375 -14.06640625 25.9609375 -12.5625 23.375 C-9.37618281 17.75032741 -6.47788338 12.02019577 -3.62915039 6.22021484 C-1.10029637 1.10029637 -1.10029637 1.10029637 0 0 Z " fill="#B94145" transform="translate(367,175)"/>
<path d="M0 0 C0.66 0 1.32 0 2 0 C0.62941021 5.43975013 -1.37302907 10.14663259 -3.9375 15.125 C-4.28490234 15.81464844 -4.63230469 16.50429688 -4.99023438 17.21484375 C-6.86074775 20.89950852 -8.81929039 24.48625474 -11 28 C-13 25 -13 25 -13 23 C-12.01 23 -11.02 23 -10 23 C-9.01 20.03 -8.02 17.06 -7 14 C-6.34 14 -5.68 14 -5 14 C-5 12.35 -5 10.7 -5 9 C-4.34 9 -3.68 9 -3 9 C-2.87625 8.2575 -2.7525 7.515 -2.625 6.75 C-2.04513299 4.19858515 -1.26291261 2.2732427 0 0 Z " fill="#9D242A" transform="translate(480,293)"/>
<path d="M0 0 C1.39864092 3.17872935 0.89282517 4.30111022 -0.3125 7.6875 C-2 11 -2 11 -4 12 C-4.68477117 13.5795772 -5.30002215 15.18973194 -5.875 16.8125 C-7.37689996 20.76131562 -8.75838712 23.20550614 -12 26 C-12.33 26.99 -12.66 27.98 -13 29 C-13.66 28.67 -14.32 28.34 -15 28 C-11.66440901 21.2151047 -8.23688178 14.48768471 -4.6875 7.8125 C-4.33816406 7.15306396 -3.98882812 6.49362793 -3.62890625 5.81420898 C-1.12225361 1.12225361 -1.12225361 1.12225361 0 0 Z " fill="#B54B4F" transform="translate(177,240)"/>
<path d="M0 0 C1 3 1 3 0.125 4.8125 C-0.24625 5.534375 -0.6175 6.25625 -1 7 C-1.38290462 8.99110401 -1.72604615 10.99100513 -2 13 C-2.66 13 -3.32 13 -4 13 C-4.33 14.32 -4.66 15.64 -5 17 C-5.66 17 -6.32 17 -7 17 C-7.12375 17.7425 -7.2475 18.485 -7.375 19.25 C-7.95486701 21.80141485 -8.73708739 23.7267573 -10 26 C-10.99 25.67 -11.98 25.34 -13 25 C-12.39671875 23.865625 -11.7934375 22.73125 -11.171875 21.5625 C-10.36453317 20.0416933 -9.55724434 18.52085846 -8.75 17 C-8.15638672 15.88431641 -8.15638672 15.88431641 -7.55078125 14.74609375 C-4.96156947 9.86479285 -2.45307452 4.95115959 0 0 Z " fill="#BB3E45" transform="translate(311,282)"/>
<path d="M0 0 C1.13890378 3.79367246 0.59374374 5.36980592 -1 9 C-1.36871088 10.65919896 -1.71281674 12.3247643 -2 14 C-2.66 14 -3.32 14 -4 14 C-4.4021875 15.3303125 -4.4021875 15.3303125 -4.8125 16.6875 C-5.9250635 19.7909666 -7.10195778 22.31110685 -9 25 C-9.66 25 -10.32 25 -11 25 C-8.4621689 16.11759114 -4.22230349 8.17381793 0 0 Z " fill="#741F24" transform="translate(99,139)"/>
<path d="M0 0 C7.5786627 -0.37446041 14.28174361 0.68624508 21.625 2.5 C23.13126953 2.85771484 23.13126953 2.85771484 24.66796875 3.22265625 C27.11455443 3.80517665 29.55821717 4.39772347 32 5 C32 5.33 32 5.66 32 6 C29.36 6.33 26.72 6.66 24 7 C24 6.34 24 5.68 24 5 C23.39414062 4.93941406 22.78828125 4.87882812 22.1640625 4.81640625 C20.40070329 4.64007033 18.63770288 4.46012402 16.875 4.27734375 C15.00240827 4.09669971 13.12710612 3.94172441 11.25 3.81640625 C9.950625 3.72166016 9.950625 3.72166016 8.625 3.625 C7.83351563 3.57601562 7.04203125 3.52703125 6.2265625 3.4765625 C3.54270612 2.90212306 2.13142741 1.68400103 0 0 Z " fill="#AA252D" transform="translate(317,38)"/>
<path d="M0 0 C0.66 0 1.32 0 2 0 C0.54963086 4.86963317 -1.50218712 9.07622063 -3.9375 13.5 C-4.63485124 14.78084921 -5.33147556 16.06209447 -6.02734375 17.34375 C-6.35976074 17.95476562 -6.69217773 18.56578125 -7.03466797 19.1953125 C-8.41168023 21.76963589 -9.71066407 24.38091008 -11 27 C-11.84291332 24.60996728 -12.15384404 23.4145692 -11.2578125 21 C-10.88398438 20.34 -10.51015625 19.68 -10.125 19 C-8.63630494 16.33492353 -7.62844826 13.99515767 -7 11 C-6.34 11 -5.68 11 -5 11 C-4.67 9.35 -4.34 7.7 -4 6 C-3.34 6 -2.68 6 -2 6 C-1.34 4.02 -0.68 2.04 0 0 Z " fill="#B73C41" transform="translate(410,166)"/>
<path d="M0 0 C0.33 0 0.66 0 1 0 C1.2361516 20.91253644 1.2361516 20.91253644 0 27 C-0.66 27.66 -1.32 28.32 -2 29 C-2.11381955 22.23405981 -1.88021369 15.71162938 -1 9 C-1.66 8.67 -2.32 8.34 -3 8 C-2.01 5.36 -1.02 2.72 0 0 Z " fill="#D7262E" transform="translate(493,222)"/>
<path d="M0 0 C4.51506998 1.70864413 8.80568177 3.79357611 13.125 5.9375 C13.84042969 6.28490234 14.55585938 6.63230469 15.29296875 6.99023438 C15.98261719 7.33248047 16.67226563 7.67472656 17.3828125 8.02734375 C18.31697998 8.48741821 18.31697998 8.48741821 19.27001953 8.95678711 C21.15218032 10.09176779 22.51185318 11.39178614 24 13 C20.28111761 12.49287967 17.26545761 11.88391785 14 10 C14 9.34 14 8.68 14 8 C13.175 7.9175 12.35 7.835 11.5 7.75 C7.23246079 6.83552731 3.80763106 5.07776822 0 3 C0 2.01 0 1.02 0 0 Z " fill="#992227" transform="translate(377,54)"/>
<path d="M0 0 C0.33 0 0.66 0 1 0 C1.16405523 4.92165681 1.19764119 7.62047131 -1 12 C-1.5721111 14.32129289 -2.08838447 16.65672744 -2.5625 19 C-4.14735401 26.75182482 -4.14735401 26.75182482 -5 30 C-5.66 30 -6.32 30 -7 30 C-6.36617071 23.2605493 -4.77702547 17.00449379 -2.9375 10.5 C-2.65583984 9.48679688 -2.37417969 8.47359375 -2.08398438 7.4296875 C-1.39434817 4.95167266 -0.69958811 2.47522 0 0 Z " fill="#802024" transform="translate(87,164)"/>
<path d="M0 0 C0.33 0 0.66 0 1 0 C1 2.64 1 5.28 1 8 C0.01 8 -0.98 8 -2 8 C-1.938125 9.1446875 -1.938125 9.1446875 -1.875 10.3125 C-2 13 -2 13 -4 16 C-4.66 16 -5.32 16 -6 16 C-6 16.99 -6 17.98 -6 19 C-6.66 19.33 -7.32 19.66 -8 20 C-9.13350534 22.01669827 -9.13350534 22.01669827 -10 24 C-11 21 -11 21 -9.9609375 18.90625 C-9.43757813 18.1121875 -8.91421875 17.318125 -8.375 16.5 C-5.03610432 11.21081478 -2.46586683 5.73914138 0 0 Z " fill="#BA4049" transform="translate(381,147)"/>
<path d="M0 0 C1.32 0 2.64 0 4 0 C4 0.66 4 1.32 4 2 C4.66 2 5.32 2 6 2 C6 2.66 6 3.32 6 4 C6.804375 4.28875 7.60875 4.5775 8.4375 4.875 C11 6 11 6 12 8 C12.99 8.33 13.98 8.66 15 9 C15.6875 11.0625 15.6875 11.0625 16 13 C17.32 13.33 18.64 13.66 20 14 C20.33 15.32 20.66 16.64 21 18 C18.32539823 16.0104461 15.66201915 14.00634941 13 12 C12.16339844 11.37738281 11.32679688 10.75476563 10.46484375 10.11328125 C9.65144531 9.49839844 8.83804688 8.88351562 8 8.25 C7.236875 7.67765625 6.47375 7.1053125 5.6875 6.515625 C5.130625 6.01546875 4.57375 5.5153125 4 5 C4 4.34 4 3.68 4 3 C2.68 2.34 1.36 1.68 0 1 C0 0.67 0 0.34 0 0 Z " fill="#982429" transform="translate(133,358)"/>
<path d="M0 0 C0.33 0 0.66 0 1 0 C1 5.94 1 11.88 1 18 C0.67 18 0.34 18 0 18 C-0.33 14.04 -0.66 10.08 -1 6 C-1.433125 7.216875 -1.86625 8.43375 -2.3125 9.6875 C-3.56201629 13.03739367 -5.03123567 15.99997817 -7 19 C-7.66 18.67 -8.32 18.34 -9 18 C-6.72013426 12.6423155 -4.37482656 7.31623611 -2 2 C-1.34 2 -0.68 2 0 2 C0 1.34 0 0.68 0 0 Z " fill="#BB2A32" transform="translate(76,226)"/>
<path d="M0 0 C-0.56847656 0.36351562 -1.13695312 0.72703125 -1.72265625 1.1015625 C-7.61786659 4.93984636 -13.02182212 9.02182212 -18 14 C-18.33 12.35 -18.66 10.7 -19 9 C-18.01 9 -17.02 9 -16 9 C-16 8.34 -16 7.68 -16 7 C-15.34 7 -14.68 7 -14 7 C-13.67 6.01 -13.34 5.02 -13 4 C-11.67696283 3.6278958 -10.34262065 3.29369827 -9 3 C-8.67 2.34 -8.34 1.68 -8 1 C-3.6 -1.2 -3.6 -1.2 0 0 Z " fill="#C43138" transform="translate(295,128)"/>
<path d="M0 0 C0.66 0 1.32 0 2 0 C0.44347945 5.3537465 -1.9817509 10.00150947 -4.625 14.875 C-5.04523437 15.65875 -5.46546875 16.4425 -5.8984375 17.25 C-6.9281022 19.16892057 -7.96347567 21.08477603 -9 23 C-10 20 -10 20 -8.8203125 17.22265625 C-8.26085937 16.17980469 -7.70140625 15.13695312 -7.125 14.0625 C-4.52435589 9.2300747 -4.52435589 9.2300747 -3 4 C-2.34 4 -1.68 4 -1 4 C-0.67 2.68 -0.34 1.36 0 0 Z " fill="#9D272A" transform="translate(518,168)"/>
<path d="M0 0 C-0.33 0.99 -0.66 1.98 -1 3 C-1.99 3.33 -2.98 3.66 -4 4 C-4.99 5.485 -4.99 5.485 -6 7 C-6.66 7 -7.32 7 -8 7 C-8.0825 7.598125 -8.165 8.19625 -8.25 8.8125 C-9.20455872 11.5966296 -10.57132271 12.43311142 -13 14 C-13.33 13.34 -13.66 12.68 -14 12 C-14.66 11.67 -15.32 11.34 -16 11 C-14.23055495 9.53998252 -12.45939429 8.08204407 -10.6875 6.625 C-9.70136719 5.81289062 -8.71523437 5.00078125 -7.69921875 4.1640625 C-2.50541516 0 -2.50541516 0 0 0 Z " fill="#A32029" transform="translate(164,71)"/>
<path d="M0 0 C0.66 0 1.32 0 2 0 C0.27692173 4.55897793 -1.83542599 8.88948134 -4 13.25 C-4.35578125 13.9821875 -4.7115625 14.714375 -5.078125 15.46875 C-7.76493227 20.88246613 -7.76493227 20.88246613 -10 22 C-10 20.68 -10 19.36 -10 18 C-9.34 18 -8.68 18 -8 18 C-7.80664062 17.41992188 -7.61328125 16.83984375 -7.4140625 16.2421875 C-5.94270833 11.828125 -4.47135417 7.4140625 -3 3 C-2.34 3 -1.68 3 -1 3 C-0.67 2.01 -0.34 1.02 0 0 Z " fill="#B63D45" transform="translate(354,274)"/>
<path d="M0 0 C0.99 0.33 1.98 0.66 3 1 C3.33 1.99 3.66 2.98 4 4 C6.00016466 5.20882096 6.00016466 5.20882096 8 6 C7.67 6.66 7.34 7.32 7 8 C7.66 8 8.32 8 9 8 C9.33 9.98 9.66 11.96 10 14 C7.66475218 11.74259377 5.81294927 9.7194239 4 7 C-0.455 7.495 -0.455 7.495 -5 8 C-4.67 7.01 -4.34 6.02 -4 5 C-2.35 5 -0.7 5 1 5 C0.67 3.35 0.34 1.7 0 0 Z " fill="#B2484B" transform="translate(456,116)"/>
<path d="M0 0 C10.23 0 20.46 0 31 0 C30 7 30 7 28 9 C28.33 6.36 28.66 3.72 29 1 C19.43 1 9.86 1 0 1 C0 0.67 0 0.34 0 0 Z " fill="#A92B35" transform="translate(512,121)"/>
<path d="M0 0 C-13.37549407 8 -13.37549407 8 -20 8 C-20 7.34 -20 6.68 -20 6 C-19.01 6 -18.02 6 -17 6 C-17 5.34 -17 4.68 -17 4 C-15.35 4 -13.7 4 -12 4 C-12 3.34 -12 2.68 -12 2 C-10.68 2 -9.36 2 -8 2 C-8 1.34 -8 0.68 -8 0 C-4.90645403 -0.99435406 -3.09720845 -0.87840996 0 0 Z " fill="#9E272C" transform="translate(388,395)"/>
<path d="M0 0 C-0.2578125 1.890625 -0.2578125 1.890625 -1 4 C-6.94803367 7.70714657 -14.26213003 7.34004204 -21 7 C-21 6.67 -21 6.34 -21 6 C-20.38253906 5.90203125 -19.76507813 5.8040625 -19.12890625 5.703125 C-13.59883716 4.72673533 -8.85903681 3.27388587 -3.8125 0.8046875 C-2 0 -2 0 0 0 Z " fill="#C2484F" transform="translate(279,326)"/>
<path d="M0 0 C0.88336837 2.4667645 1.1312406 3.63859372 0.22265625 6.140625 C-0.16019531 6.83671875 -0.54304688 7.5328125 -0.9375 8.25 C-1.31777344 8.95640625 -1.69804688 9.6628125 -2.08984375 10.390625 C-2.39019531 10.92171875 -2.69054688 11.4528125 -3 12 C-3.66 12 -4.32 12 -5 12 C-4.9175 12.70125 -4.835 13.4025 -4.75 14.125 C-5.08446819 17.97138418 -6.63496961 20.00893216 -9 23 C-9.66 23 -10.32 23 -11 23 C-9.65150163 18.64029169 -7.95092154 14.68658562 -5.875 10.625 C-5.33617187 9.56539063 -4.79734375 8.50578125 -4.2421875 7.4140625 C-3.83226562 6.61742187 -3.42234375 5.82078125 -3 5 C-2.34 5 -1.68 5 -1 5 C-0.67 3.35 -0.34 1.7 0 0 Z " fill="#702022" transform="translate(55,263)"/>
<path d="M0 0 C1 3 1 3 0.22729492 4.9453125 C-0.18415771 5.66460937 -0.59561035 6.38390625 -1.01953125 7.125 C-1.46490234 7.91390625 -1.91027344 8.7028125 -2.36914062 9.515625 C-2.84544922 10.33546875 -3.32175781 11.1553125 -3.8125 12 C-4.27720703 12.81984375 -4.74191406 13.6396875 -5.22070312 14.484375 C-7.06650245 17.7257787 -8.93000484 20.89500726 -11 24 C-11 22.02 -11 20.04 -11 18 C-10.01 17.67 -9.02 17.34 -8 17 C-7.90847656 16.30519531 -7.81695312 15.61039063 -7.72265625 14.89453125 C-6.84484502 11.3785414 -5.30948033 8.78477654 -3.4375 5.6875 C-2.79683594 4.61886719 -2.15617187 3.55023438 -1.49609375 2.44921875 C-1.00238281 1.64097656 -0.50867188 0.83273438 0 0 Z " fill="#B13E43" transform="translate(272,147)"/>
<path d="M0 0 C0.66 0 1.32 0 2 0 C5.10928299 8.31097656 5.66015674 16.21095009 6 25 C4.35625802 22.02560975 3.54008926 19.35248793 2.9296875 16.015625 C2.75566406 15.08105469 2.58164062 14.14648438 2.40234375 13.18359375 C2.14130859 11.73146484 2.14130859 11.73146484 1.875 10.25 C1.69324219 9.26644531 1.51148438 8.28289062 1.32421875 7.26953125 C0.87739815 4.84729328 0.43619812 2.42416945 0 0 Z " fill="#BF343A" transform="translate(486,169)"/>
<path d="M0 0 C5.51227394 0.47519603 9.05432116 1.4241256 14 4 C16.65039392 4.79029928 19.2984068 5.39447049 22 6 C22 6.33 22 6.66 22 7 C13.78294197 7.98604696 7.24374897 4.41839839 0 1 C0 0.67 0 0.34 0 0 Z " fill="#A72A2E" transform="translate(192,398)"/>
<path d="M0 0 C0.33 0 0.66 0 1 0 C1 2.64 1 5.28 1 8 C0.34 8 -0.32 8 -1 8 C-1 8.99 -1 9.98 -1 11 C-1.99 11 -2.98 11 -4 11 C-4.66 12.98 -5.32 14.96 -6 17 C-6.66 17 -7.32 17 -8 17 C-6.51095825 13.10391502 -4.75621287 9.40902982 -2.875 5.6875 C-2.06675781 4.08455078 -2.06675781 4.08455078 -1.2421875 2.44921875 C-0.62730469 1.23685547 -0.62730469 1.23685547 0 0 Z " fill="#992227" transform="translate(32,307)"/>
<path d="M0 0 C0.66 0 1.32 0 2 0 C0.2613238 6.23379028 -1.84731423 10.99548126 -6 16 C-6.66 16 -7.32 16 -8 16 C-6.46197215 10.15549417 -3.5439162 4.87288478 0 0 Z " fill="#B84044" transform="translate(238,123)"/>
<path d="M0 0 C0.33 0.66 0.66 1.32 1 2 C-0.40792541 4.81585081 -1.86237884 6.86642652 -4.125 9.0625 C-6.09732587 11.10057007 -6.60548202 12.23837416 -7 15 C-7.99 15 -8.98 15 -10 15 C-7.88961503 9.02057593 -4.63770594 4.30644123 0 0 Z " fill="#8E252A" transform="translate(110,124)"/>
<path d="M0 0 C3.38060901 3.11371882 5.70920036 5.54087397 7 10 C7 10.99 7 11.98 7 13 C5.35 12.67 3.7 12.34 2 12 C2.33 9.69 2.66 7.38 3 5 C2.34 5 1.68 5 1 5 C0.67 3.35 0.34 1.7 0 0 Z " fill="#BC2329" transform="translate(450,108)"/>
<path d="M0 0 C1.05711427 3.19957435 0.95184778 4.96645088 -0.21484375 8.109375 C-0.48876953 8.86347656 -0.76269531 9.61757813 -1.04492188 10.39453125 C-1.48674805 11.56048828 -1.48674805 11.56048828 -1.9375 12.75 C-2.22818359 13.54277344 -2.51886719 14.33554687 -2.81835938 15.15234375 C-3.53594814 17.10512629 -4.26670906 19.05305941 -5 21 C-5.33 21 -5.66 21 -6 21 C-5.25339288 15.27601207 -4.17122859 9.65146223 -3 4 C-2.01 3.67 -1.02 3.34 0 3 C0 2.01 0 1.02 0 0 Z " fill="#99262D" transform="translate(488,272)"/>
<path d="M0 0 C0.66 0 1.32 0 2 0 C0.57250019 3.79049707 -1.16236542 7.27122456 -3.125 10.8125 C-3.93324219 12.27623047 -3.93324219 12.27623047 -4.7578125 13.76953125 C-5.37269531 14.87361328 -5.37269531 14.87361328 -6 16 C-6.33 16 -6.66 16 -7 16 C-7.22036864 12.14354879 -6.60355101 9.50776784 -5 6 C-4.34 6 -3.68 6 -3 6 C-3 5.01 -3 4.02 -3 3 C-2.34 3 -1.68 3 -1 3 C-0.67 2.01 -0.34 1.02 0 0 Z " fill="#A9272C" transform="translate(506,192)"/>
<path d="M0 0 C4.21654356 1.48635116 7.62478605 3.61249159 11.3125 6.125 C12.38113281 6.84945312 13.44976562 7.57390625 14.55078125 8.3203125 C15.76314453 9.15175781 15.76314453 9.15175781 17 10 C16.67 10.66 16.34 11.32 16 12 C9.29787234 10.06382979 9.29787234 10.06382979 7 7 C7 6.34 7 5.68 7 5 C5.35 4.67 3.7 4.34 2 4 C2 3.34 2 2.68 2 2 C1.34 2 0.68 2 0 2 C0 1.34 0 0.68 0 0 Z " fill="#992429" transform="translate(401,67)"/>
<path d="M0 0 C-0.33 1.32 -0.66 2.64 -1 4 C-2.65 4 -4.3 4 -6 4 C-6 4.66 -6 5.32 -6 6 C-9.47823115 7.15941038 -11.45895578 6.70820884 -15 6 C-12.29954818 4.19969878 -9.93322119 3.06622934 -6.9375 1.875 C-6.05964844 1.52179687 -5.18179688 1.16859375 -4.27734375 0.8046875 C-2 0 -2 0 0 0 Z " fill="#9A2325" transform="translate(213,47)"/>
<path d="M0 0 C2 3 2 3 2 5 C2.66 5 3.32 5 4 5 C4 5.66 4 6.32 4 7 C5.32 7.33 6.64 7.66 8 8 C8.33 9.98 8.66 11.96 9 14 C8.34 14 7.68 14 7 14 C5.39365985 12.26608049 3.8624713 10.461909 2.375 8.625 C1.55773437 7.62726563 0.74046875 6.62953125 -0.1015625 5.6015625 C-2 3 -2 3 -2 1 C-1.34 0.67 -0.68 0.34 0 0 Z " fill="#992227" transform="translate(117,336)"/>
<path d="M0 0 C0.99 0.33 1.98 0.66 3 1 C3 1.66 3 2.32 3 3 C3.99 3.33 4.98 3.66 6 4 C6 4.66 6 5.32 6 6 C6.66 6 7.32 6 8 6 C9.2890625 7.53125 9.2890625 7.53125 10.625 9.5 C11.07101562 10.1496875 11.51703125 10.799375 11.9765625 11.46875 C12.48316406 12.22671875 12.48316406 12.22671875 13 13 C11.35 12.67 9.7 12.34 8 12 C8 11.01 8 10.02 8 9 C7.34 9 6.68 9 6 9 C5.67 7.68 5.34 6.36 5 5 C3.35 5 1.7 5 0 5 C0 3.35 0 1.7 0 0 Z " fill="#A12528" transform="translate(437,95)"/>
<path d="M0 0 C0 0.99 0 1.98 0 3 C-0.99 3.495 -0.99 3.495 -2 4 C-2.2475 4.61875 -2.495 5.2375 -2.75 5.875 C-4.52059982 8.8850197 -6.86620246 9.63747933 -10 11 C-9.65151766 8.42123065 -9.36448283 6.49876597 -7.8125 4.375 C-5.37834456 2.52839932 -2.76190652 1.28888971 0 0 Z " fill="#A22429" transform="translate(131,100)"/>
<path d="M0 0 C1.23516383 3.70549149 0.58673093 4.89663836 -0.75 8.5 C-1.09546875 9.4590625 -1.4409375 10.418125 -1.796875 11.40625 C-2.9496278 13.8914054 -3.85336498 15.3278843 -6 17 C-6.66 17 -7.32 17 -8 17 C-6.3341708 10.83643195 -3.12194714 5.51740344 0 0 Z " fill="#BB3F44" transform="translate(161,270)"/>
<path d="M0 0 C0.33 0 0.66 0 1 0 C1.41276847 5.02693031 0.52437156 7.37850901 -2.5 11.375 C-3.47453125 12.68597656 -3.47453125 12.68597656 -4.46875 14.0234375 C-4.9740625 14.67570313 -5.479375 15.32796875 -6 16 C-6.33 15.34 -6.66 14.68 -7 14 C-5.92481882 11.55667274 -4.80191434 9.23245477 -3.5625 6.875 C-3.22412109 6.21628906 -2.88574219 5.55757812 -2.53710938 4.87890625 C-1.69850074 3.24893453 -0.85015189 1.62398091 0 0 Z " fill="#BD3E43" transform="translate(185,224)"/>
<path d="M0 0 C0.66 0.33 1.32 0.66 2 1 C2.50130606 6.26371362 1.31168629 8.9090934 -2 13 C-2.66 13 -3.32 13 -4 13 C-3.71517632 11.58194169 -3.42181856 10.16559621 -3.125 8.75 C-2.96257812 7.96109375 -2.80015625 7.1721875 -2.6328125 6.359375 C-2.00849925 4.03168856 -1.15161458 2.10968048 0 0 Z " fill="#C92F38" transform="translate(395,120)"/>
<path d="M0 0 C-0.59167969 0.19335938 -1.18335938 0.38671875 -1.79296875 0.5859375 C-2.58316406 0.84632812 -3.37335938 1.10671875 -4.1875 1.375 C-5.01507813 1.64699219 -5.84265625 1.91898438 -6.6953125 2.19921875 C-9.07568891 2.98351643 -9.07568891 2.98351643 -11.5625 4.1875 C-15.10641319 5.3688044 -18.27468304 5.12628193 -22 5 C-18.47893171 3.05460977 -14.8524463 1.94293181 -11 0.8125 C-9.783125 0.44769531 -8.56625 0.08289062 -7.3125 -0.29296875 C-4.27118248 -0.94211789 -2.83488355 -1.11269179 0 0 Z " fill="#7F1E21" transform="translate(235,42)"/>
<path d="M0 0 C1 2 1 2 -0.1875 5.6875 C-1.77263208 9.70170021 -3.77041513 13.30965263 -6 17 C-6.66 17 -7.32 17 -8 17 C-6.3341708 10.83643195 -3.12194714 5.51740344 0 0 Z " fill="#B7484A" transform="translate(468,266)"/>
<path d="M0 0 C1 3 1 3 -0.21484375 5.91796875 C-0.78332031 6.99691406 -1.35179687 8.07585937 -1.9375 9.1875 C-2.50339844 10.27417969 -3.06929688 11.36085937 -3.65234375 12.48046875 C-4.09707031 13.31191406 -4.54179687 14.14335937 -5 15 C-5.66 15 -6.32 15 -7 15 C-7 13.35 -7 11.7 -7 10 C-6.34 10 -5.68 10 -5 10 C-5 9.01 -5 8.02 -5 7 C-4.34 7 -3.68 7 -3 7 C-3 5.68 -3 4.36 -3 3 C-1.5 1.25 -1.5 1.25 0 0 Z " fill="#BD343C" transform="translate(260,169)"/>
<path d="M0 0 C0 0.66 0 1.32 0 2 C-1.4096347 2.70180531 -2.82807641 3.38593958 -4.25 4.0625 C-5.03890625 4.44535156 -5.8278125 4.82820313 -6.640625 5.22265625 C-9.25993522 6.08564091 -10.44855176 5.93045933 -13 5 C-11.40377344 3.96679519 -9.79770894 2.94877571 -8.1875 1.9375 C-7.29417969 1.36902344 -6.40085938 0.80054687 -5.48046875 0.21484375 C-3 -1 -3 -1 0 0 Z " fill="#8E1D25" transform="translate(177,65)"/>
<path d="M0 0 C0.33 0 0.66 0 1 0 C0.67 3.3 0.34 6.6 0 10 C-0.99 10 -1.98 10 -3 10 C-3.33 11.32 -3.66 12.64 -4 14 C-4.66 14 -5.32 14 -6 14 C-4.50829734 9.0276578 -2.39542583 4.58154261 0 0 Z " fill="#BD4047" transform="translate(318,268)"/>
<path d="M0 0 C0.66 0.33 1.32 0.66 2 1 C-0.10111609 2.48366971 -2.20564035 3.96202656 -4.3125 5.4375 C-5.20485352 6.06881836 -5.20485352 6.06881836 -6.11523438 6.71289062 C-8.72942961 8.53844596 -10.95762396 9.98587465 -14 11 C-14 9 -14 9 -12.4375 7 C-9.44670033 4.54601052 -6.73640248 3.86224673 -3 3 C-3 2.34 -3 1.68 -3 1 C-2.01 0.67 -1.02 0.34 0 0 Z " fill="#9D262D" transform="translate(415,376)"/>
<path d="M0 0 C0.33 0 0.66 0 1 0 C1.34413266 4.21936561 0.53975233 6.30695601 -1.875 9.75 C-2.40867187 10.52859375 -2.94234375 11.3071875 -3.4921875 12.109375 C-5 14 -5 14 -7 15 C-5.45454854 9.52067211 -2.84456788 4.88570819 0 0 Z " fill="#6F2125" transform="translate(43,286)"/>
<path d="M0 0 C-0.64066406 0.37511719 -1.28132812 0.75023438 -1.94140625 1.13671875 C-7.14455402 4.21518323 -12.13826295 7.40654218 -17 11 C-16.01437243 7.68470727 -15.34552581 6.25050621 -12.5 4.1875 C-10 3 -10 3 -8 3 C-8 2.34 -8 1.68 -8 1 C-3.375 -1.125 -3.375 -1.125 0 0 Z " fill="#B44046" transform="translate(141,127)"/>
<path d="M0 0 C-5.61 1.65 -11.22 3.3 -17 5 C-17.33 4.34 -17.66 3.68 -18 3 C-12.40989232 -0.29673017 -6.29248708 -2.09749569 0 0 Z " fill="#9B272A" transform="translate(360,407)"/>
<path d="M0 0 C0.33 1.32 0.66 2.64 1 4 C0.34 4 -0.32 4 -1 4 C-1.33 5.65 -1.66 7.3 -2 9 C-3.32 9.33 -4.64 9.66 -6 10 C-6 10.99 -6 11.98 -6 13 C-6.66 13 -7.32 13 -8 13 C-7.34938905 11.32700041 -6.67966676 9.66140763 -6 8 C-5.71125 7.2575 -5.4225 6.515 -5.125 5.75 C-4 4 -4 4 -1.875 3.25 C-1.25625 3.1675 -0.6375 3.085 0 3 C0 2.01 0 1.02 0 0 Z " fill="#C63D44" transform="translate(220,160)"/>
<path d="M0 0 C1.13583456 3.71727674 0.66670026 5.47051709 -1 9 C-1.66 9 -2.32 9 -3 9 C-3.66 10.98 -4.32 12.96 -5 15 C-5.66 15 -6.32 15 -7 15 C-5.45454854 9.52067211 -2.84456788 4.88570819 0 0 Z " fill="#B6454B" transform="translate(476,251)"/>
<path d="M0 0 C0.33 0 0.66 0 1 0 C1 3.63 1 7.26 1 11 C1.66 11.33 2.32 11.66 3 12 C2.01 12.33 1.02 12.66 0 13 C-0.33 15.31 -0.66 17.62 -1 20 C-1.66 19.67 -2.32 19.34 -3 19 C-2.86722656 18.29875 -2.73445313 17.5975 -2.59765625 16.875 C-1.55238798 11.2595442 -0.6425281 5.67566491 0 0 Z " fill="#4B1C1F" transform="translate(77,208)"/>
<path d="M0 0 C4.96079128 0.6401021 9.66887517 2.53236503 14 5 C14.99 6.485 14.99 6.485 16 8 C10.08133625 6.16803265 4.84418971 3.91261476 0 0 Z " fill="#902629" transform="translate(176,390)"/>
<path d="M0 0 C0.75 1.625 0.75 1.625 1 4 C-2.136 9.712 -2.136 9.712 -6 11 C-4.55662437 7.11398869 -2.98188088 2.98188088 0 0 Z " fill="#BE3840" transform="translate(490,226)"/>
<path d="M0 0 C0.99 0 1.98 0 3 0 C2.35550393 3.01217112 1.34977818 5.51655836 -0.0625 8.25 C-0.42472656 8.95640625 -0.78695312 9.6628125 -1.16015625 10.390625 C-1.43730469 10.92171875 -1.71445312 11.4528125 -2 12 C-2.87840996 8.90279155 -2.99435406 7.09354597 -2 4 C-1.34 4 -0.68 4 0 4 C0 2.68 0 1.36 0 0 Z " fill="#A8282E" transform="translate(525,152)"/>
<path d="M0 0 C2 3 2 3 1.625 6.1875 C1.41875 7.115625 1.2125 8.04375 1 9 C0.01 9 -0.98 9 -2 9 C-2.66 7.35 -3.32 5.7 -4 4 C-3.01 3.67 -2.02 3.34 -1 3 C-0.67 2.01 -0.34 1.02 0 0 Z " fill="#D32E37" transform="translate(475,135)"/>
<path d="M0 0 C0 0.33 0 0.66 0 1 C-2.0829243 1.64715133 -4.16635539 2.29267166 -6.25 2.9375 C-7.41015625 3.29714844 -8.5703125 3.65679687 -9.765625 4.02734375 C-12.17089058 4.75066637 -14.55654044 5.42542411 -17 6 C-16.265625 4.078125 -16.265625 4.078125 -15 2 C-13.046875 1.171875 -13.046875 1.171875 -10.75 0.75 C-9.95207031 0.60304688 -9.15414063 0.45609375 -8.33203125 0.3046875 C-5.53191774 -0.06115648 -2.81947573 -0.1445885 0 0 Z " fill="#B84A4D" transform="translate(312,121)"/>
<path d="M0 0 C0.66 0 1.32 0 2 0 C1.54554036 1.41791408 1.08625056 2.83428046 0.625 4.25 C0.36976563 5.03890625 0.11453125 5.8278125 -0.1484375 6.640625 C-0.95173667 8.86627958 -1.89711662 10.90931672 -3 13 C-3.66 13 -4.32 13 -5 13 C-4.54554036 11.58208592 -4.08625056 10.16571954 -3.625 8.75 C-3.24214844 7.56664062 -3.24214844 7.56664062 -2.8515625 6.359375 C-2.04826333 4.13372042 -1.10288338 2.09068328 0 0 Z " fill="#BB474D" transform="translate(181,320)"/>
<path d="M0 0 C1.31625194 2.63250388 0.74813658 3.80179056 0.0625 6.625 C-0.13214844 7.44226563 -0.32679688 8.25953125 -0.52734375 9.1015625 C-0.76130859 10.04128906 -0.76130859 10.04128906 -1 11 C-2.32 11.33 -3.64 11.66 -5 12 C-4.34 9.36 -3.68 6.72 -3 4 C-2.34 4 -1.68 4 -1 4 C-0.67 2.68 -0.34 1.36 0 0 Z " fill="#D12831" transform="translate(165,265)"/>
<path d="M0 0 C1.36219168 3.67791752 0.53943019 5.49352013 -1 9 C-1.36871088 10.65919896 -1.71281674 12.3247643 -2 14 C-2.66 14 -3.32 14 -4 14 C-4.33 14.66 -4.66 15.32 -5 16 C-5 14.68 -5 13.36 -5 12 C-4.34 12 -3.68 12 -3 12 C-2.95101562 11.38511719 -2.90203125 10.77023438 -2.8515625 10.13671875 C-2.77679688 9.32847656 -2.70203125 8.52023438 -2.625 7.6875 C-2.52058594 6.48673828 -2.52058594 6.48673828 -2.4140625 5.26171875 C-2 3 -2 3 0 0 Z " fill="#8F252B" transform="translate(99,139)"/>
<path d="M0 0 C0.66 0.33 1.32 0.66 2 1 C1.21625 1.61875 0.4325 2.2375 -0.375 2.875 C-2.96837647 4.89858661 -2.96837647 4.89858661 -5 7 C-7.625 7.625 -7.625 7.625 -10 8 C-8.61469871 4.57282232 -7.32522773 3.2706507 -4 1.6875 C-3.29875 1.34074219 -2.5975 0.99398437 -1.875 0.63671875 C-1.25625 0.42660156 -0.6375 0.21648437 0 0 Z " fill="#FAEAE5" transform="translate(299,125)"/>
<path d="M0 0 C-1 3 -1 3 -2.9609375 3.984375 C-3.75757812 4.23703125 -4.55421875 4.4896875 -5.375 4.75 C-6.56222656 5.14445312 -6.56222656 5.14445312 -7.7734375 5.546875 C-10 6 -10 6 -13 5 C-12.67 4.34 -12.34 3.68 -12 3 C-9.66842508 2.65458149 -7.33491639 2.32205743 -5 2 C-2 0 -2 0 0 0 Z " fill="#BA5157" transform="translate(123,326)"/>
<path d="M0 0 C1.65 0 3.3 0 5 0 C-3.20689655 7 -3.20689655 7 -8 7 C-7.67 6.01 -7.34 5.02 -7 4 C-3.4375 2.8125 -3.4375 2.8125 0 2 C0 1.34 0 0.68 0 0 Z " fill="#9A2629" transform="translate(396,387)"/>
<path d="M0 0 C0.99 0.33 1.98 0.66 3 1 C1.87970983 2.48273699 0.75361382 3.96108886 -0.375 5.4375 C-1.00148438 6.26121094 -1.62796875 7.08492188 -2.2734375 7.93359375 C-4 10 -4 10 -6 11 C-5.40312566 7.65750371 -4.26396123 5.53563658 -2 3 C-1.34 3 -0.68 3 0 3 C0 2.01 0 1.02 0 0 Z " fill="#A0292D" transform="translate(457,333)"/>
<path d="M0 0 C1 4 1 4 1 4 Z M-2 4 C-1.34 4.33 -0.68 4.66 0 5 C-0.33 5.66 -0.66 6.32 -1 7 C-1.66 7 -2.32 7 -3 7 C-3 7.99 -3 8.98 -3 10 C-3.99 10.495 -3.99 10.495 -5 11 C-6.13350534 13.01669827 -6.13350534 13.01669827 -7 15 C-7.33 14.01 -7.66 13.02 -8 12 C-6.1875 8.8125 -6.1875 8.8125 -4 6 C-3.34 6 -2.68 6 -2 6 C-2 5.34 -2 4.68 -2 4 Z " fill="#C13840" transform="translate(378,156)"/>
<path d="M0 0 C0.66 0.33 1.32 0.66 2 1 C0.69144447 2.83615081 -0.62194462 4.66885789 -1.9375 6.5 C-2.66839844 7.5209375 -3.39929688 8.541875 -4.15234375 9.59375 C-4.76207031 10.3878125 -5.37179687 11.181875 -6 12 C-6.33 12 -6.66 12 -7 12 C-7 10.35 -7 8.7 -7 7 C-6.34 7 -5.68 7 -5 7 C-4.731875 6.401875 -4.46375 5.80375 -4.1875 5.1875 C-3.01506533 3.02775192 -1.80630718 1.64209744 0 0 Z " fill="#B54149" transform="translate(428,137)"/>
<path d="M0 0 C2.0625 0.4375 2.0625 0.4375 4 1 C-4.261959 5.59225513 -4.261959 5.59225513 -9 5 C-9.33 4.34 -9.66 3.68 -10 3 C-9.04287109 2.80083984 -9.04287109 2.80083984 -8.06640625 2.59765625 C-7.24011719 2.42105469 -6.41382813 2.24445313 -5.5625 2.0625 C-4.73878906 1.88847656 -3.91507812 1.71445312 -3.06640625 1.53515625 C-1.02338796 1.19247006 -1.02338796 1.19247006 0 0 Z " fill="#B64C52" transform="translate(418,329)"/>
<path d="M0 0 C0.79921875 0.00902344 1.5984375 0.01804688 2.421875 0.02734375 C3.02515625 0.03894531 3.6284375 0.05054688 4.25 0.0625 C4.25 0.3925 4.25 0.7225 4.25 1.0625 C-1.32067277 2.65412079 -5.96101581 3.26924944 -11.75 3.0625 C-7.71076287 0.36967525 -4.79463848 -0.07050939 0 0 Z " fill="#922426" transform="translate(249.75,37.9375)"/>
<path d="M0 0 C1.65 0 3.3 0 5 0 C1.25 6.875 1.25 6.875 -1 8 C-0.67 6.35 -0.34 4.7 0 3 C-0.66 2.67 -1.32 2.34 -2 2 C-1.34 2 -0.68 2 0 2 C0 1.34 0 0.68 0 0 Z " fill="#A5232A" transform="translate(461,325)"/>
<path d="M0 0 C0.33 0 0.66 0 1 0 C1 3.3 1 6.6 1 10 C0.34 10 -0.32 10 -1 10 C-1.33 10.99 -1.66 11.98 -2 13 C-2.16682272 8.07872966 -2.24828052 4.49656104 0 0 Z " fill="#C42730" transform="translate(489,262)"/>
<path d="M0 0 C0.66 0.33 1.32 0.66 2 1 C0.02 4.96 -1.96 8.92 -4 13 C-5 9 -5 9 -4.00390625 6.640625 C-3.52824219 5.85171875 -3.05257812 5.0628125 -2.5625 4.25 C-2.08941406 3.45078125 -1.61632812 2.6515625 -1.12890625 1.828125 C-0.75636719 1.22484375 -0.38382812 0.6215625 0 0 Z " fill="#B14447" transform="translate(116,146)"/>
<path d="M0 0 C2.475 0.495 2.475 0.495 5 1 C5 1.99 5 2.98 5 4 C5.66 4 6.32 4 7 4 C6.67 5.32 6.34 6.64 6 8 C4.5 6.625 4.5 6.625 3 5 C3 4.34 3 3.68 3 3 C2.01 2.67 1.02 2.34 0 2 C0 1.34 0 0.68 0 0 Z " fill="#922025" transform="translate(126,350)"/>
<path d="M0 0 C0.66 0 1.32 0 2 0 C0.77472971 4.05281712 -0.69880494 7.44360764 -3 11 C-4.04449911 7.86650268 -3.93423645 7.01031744 -3 4 C-2.34 4 -1.68 4 -1 4 C-0.67 2.68 -0.34 1.36 0 0 Z " fill="#A7252B" transform="translate(532,141)"/>
<path d="M0 0 C0.99 0.33 1.98 0.66 3 1 C3.33 2.32 3.66 3.64 4 5 C-0.455 6.485 -0.455 6.485 -5 8 C-4.67 7.01 -4.34 6.02 -4 5 C-2.35 5 -0.7 5 1 5 C0.67 3.35 0.34 1.7 0 0 Z " fill="#9E3239" transform="translate(456,116)"/>
<path d="M0 0 C6.92307692 4.46153846 6.92307692 4.46153846 9 7 C9 7.66 9 8.32 9 9 C7.0625 8.625 7.0625 8.625 5 8 C4.67 7.34 4.34 6.68 4 6 C3.01 5.67 2.02 5.34 1 5 C0.67 3.35 0.34 1.7 0 0 Z " fill="#8D2427" transform="translate(428,86)"/>
<path d="M0 0 C1.65 0 3.3 0 5 0 C4.67 0.99 4.34 1.98 4 3 C3.34 3 2.68 3 2 3 C1.67 3.99 1.34 4.98 1 6 C0.34 6 -0.32 6 -1 6 C-1.33 6.66 -1.66 7.32 -2 8 C-2 7.01 -2 6.02 -2 5 C-1.34 5 -0.68 5 0 5 C0 3.35 0 1.7 0 0 Z " fill="#A22026" transform="translate(438,353)"/>
<path d="M0 0 C1 3 1 3 -0.1875 6.625 C-0.785625 7.73875 -1.38375 8.8525 -2 10 C-3.32 10.33 -4.64 10.66 -6 11 C-4.02 7.37 -2.04 3.74 0 0 Z " fill="#B7474D" transform="translate(449,302)"/>
<path d="M0 0 C0.33 0 0.66 0 1 0 C0.67 2.31 0.34 4.62 0 7 C-0.99 7.33 -1.98 7.66 -3 8 C-3.73323796 10.01508358 -3.73323796 10.01508358 -4 12 C-4.33 11.34 -4.66 10.68 -5 10 C-4.00390625 7.6171875 -4.00390625 7.6171875 -2.5625 4.875 C-1.85287109 3.50988281 -1.85287109 3.50988281 -1.12890625 2.1171875 C-0.75636719 1.41851562 -0.38382812 0.71984375 0 0 Z " fill="#B3464A" transform="translate(329,247)"/>
<path d="M0 0 C0.66 0 1.32 0 2 0 C0.41037341 4.03520597 -1.28232318 8.01811282 -3 12 C-4.09658936 8.71023192 -3.79953138 7.28696233 -3 4 C-2.34 4 -1.68 4 -1 4 C-0.67 2.68 -0.34 1.36 0 0 Z " fill="#B34148" transform="translate(86,203)"/>
<path d="M0 0 C0.99 0.33 1.98 0.66 3 1 C1.35 4.3 -0.3 7.6 -2 11 C-3.09658936 7.71023192 -2.79953138 6.28696233 -2 3 C-1.34 3 -0.68 3 0 3 C0 2.01 0 1.02 0 0 Z " fill="#B74048" transform="translate(189,304)"/>
<path d="M0 0 C0.33 0 0.66 0 1 0 C0.92909865 3.07454047 0.7524935 6.01122299 0 9 C-2.5625 11.0625 -2.5625 11.0625 -5 12 C-4.67 11.01 -4.34 10.02 -4 9 C-3.34 9 -2.68 9 -2 9 C-1.7834375 7.88625 -1.7834375 7.88625 -1.5625 6.75 C-1.09812508 4.47972261 -0.58136431 2.24240521 0 0 Z " fill="#D3272E" transform="translate(460,283)"/>
<path d="M0 0 C0.66 0.33 1.32 0.66 2 1 C-0.475 4.465 -0.475 4.465 -3 8 C-5 4.25 -5 4.25 -5 2 C-2.625 0.9375 -2.625 0.9375 0 0 Z " fill="#BD3B40" transform="translate(122,138)"/>
<path d="M0 0 C-0.33 0.99 -0.66 1.98 -1 3 C-1.99 3.33 -2.98 3.66 -4 4 C-4.99 5.485 -4.99 5.485 -6 7 C-7.32 6.67 -8.64 6.34 -10 6 C-8.71283353 4.99421411 -7.42011342 3.99553202 -6.125 3 C-5.40570313 2.443125 -4.68640625 1.88625 -3.9453125 1.3125 C-2 0 -2 0 0 0 Z " fill="#6C1A1E" transform="translate(164,71)"/>
<path d="M0 0 C0.33 1.32 0.66 2.64 1 4 C-0.3125 5.5625 -0.3125 5.5625 -2 7 C-2.99 8.485 -2.99 8.485 -4 10 C-4.99 9.67 -5.98 9.34 -7 9 C-4.69 6.03 -2.38 3.06 0 0 Z " fill="#B64148" transform="translate(297,308)"/>
<path d="M0 0 C0.33 1.32 0.66 2.64 1 4 C-0.8125 5.5625 -0.8125 5.5625 -3 7 C-3.99 6.67 -4.98 6.34 -6 6 C-5.34 6 -4.68 6 -4 6 C-3.71125 5.38125 -3.4225 4.7625 -3.125 4.125 C-2 2 -2 2 0 0 Z " fill="#BF494D" transform="translate(139,311)"/>
<path d="M0 0 C0.95465783 2.16967689 1.14401212 3.56328793 0.3984375 5.82421875 C-0.35870385 7.5684743 -1.17609198 9.28627131 -2 11 C-2.66 10.67 -3.32 10.34 -4 10 C-3.52449439 8.51965236 -3.04448784 7.04074979 -2.5625 5.5625 C-2.29566406 4.73878906 -2.02882812 3.91507813 -1.75390625 3.06640625 C-1 1 -1 1 0 0 Z " fill="#BF393C" transform="translate(177,240)"/>
<path d="M0 0 C1.125 3.75 1.125 3.75 0 6 C-0.66 6 -1.32 6 -2 6 C-2.33 6.99 -2.66 7.98 -3 9 C-3.66 9 -4.32 9 -5 9 C-4.1875 6.5625 -4.1875 6.5625 -3 4 C-2.01 3.67 -1.02 3.34 0 3 C0 2.01 0 1.02 0 0 Z " fill="#C33F45" transform="translate(387,138)"/>
<path d="M0 0 C1.64846769 0.44876616 3.29373455 0.90930488 4.9375 1.375 C5.85402344 1.63023438 6.77054687 1.88546875 7.71484375 2.1484375 C10 3 10 3 11 5 C7.7 4.34 4.4 3.68 1 3 C0.67 2.01 0.34 1.02 0 0 Z " fill="#791D20" transform="translate(357,46)"/>
<path d="M0 0 C2.0625 0.4375 2.0625 0.4375 4 1 C2.71937515 2.7074998 1.38232443 4.37373596 0 6 C-0.66 6 -1.32 6 -2 6 C-1.125 1.125 -1.125 1.125 0 0 Z " fill="#A42730" transform="translate(445,347)"/>
<path d="M0 0 C0 3.90838866 -1.50567876 5.11594107 -4 8 C-5.32 7.67 -6.64 7.34 -8 7 C-5.36 4.69 -2.72 2.38 0 0 Z " fill="#B34954" transform="translate(438,317)"/>
<path d="M0 0 C0.6875 1.6875 0.6875 1.6875 1 4 C-0.3125 6.75 -0.3125 6.75 -2 9 C-2.66 9 -3.32 9 -4 9 C-2.80100302 5.9168649 -1.52299523 2.93720508 0 0 Z " fill="#671D1F" transform="translate(64,246)"/>
<path d="M0 0 C0.33 0 0.66 0 1 0 C1.19622241 4.21878192 0.80230168 7.17010894 -1 11 C-1.33 11 -1.66 11 -2 11 C-2 8.36 -2 5.72 -2 3 C-1.34 3 -0.68 3 0 3 C0 2.01 0 1.02 0 0 Z " fill="#C32935" transform="translate(90,161)"/>
<path d="M0 0 C0.66 0 1.32 0 2 0 C0.84414715 3.91211733 -0.35534962 6.8745041 -3 10 C-3 8.02 -3 6.04 -3 4 C-2.01 3.67 -1.02 3.34 0 3 C0 2.01 0 1.02 0 0 Z " fill="#B7434A" transform="translate(264,161)"/>
<path d="M0 0 C3.63 0.66 7.26 1.32 11 2 C11 2.33 11 2.66 11 3 C8.36 3.33 5.72 3.66 3 4 C3 3.34 3 2.68 3 2 C2.01 1.67 1.02 1.34 0 1 C0 0.67 0 0.34 0 0 Z " fill="#891C21" transform="translate(338,41)"/>
<path d="M0 0 C0.66 0.33 1.32 0.66 2 1 C1.505 1.928125 1.01 2.85625 0.5 3.8125 C-1.21289852 6.86527516 -1.21289852 6.86527516 -1 10 C-1.66 10 -2.32 10 -3 10 C-2.25 3.375 -2.25 3.375 0 0 Z " fill="#B03E43" transform="translate(328,324)"/>
<path d="M0 0 C1 3 1 3 0.22265625 4.82421875 C-0.8515625 6.54947917 -1.92578125 8.27473958 -3 10 C-3.66 10 -4.32 10 -5 10 C-3.66511872 6.40608886 -2.03977277 3.24509304 0 0 Z " fill="#631C1C" transform="translate(29,314)"/>
<path d="M0 0 C0.6875 1.6875 0.6875 1.6875 1 4 C-0.3125 6.75 -0.3125 6.75 -2 9 C-2.66 9 -3.32 9 -4 9 C-2.94124926 5.59687262 -1.99097846 2.98646769 0 0 Z " fill="#B85054" transform="translate(323,259)"/>
<path d="M0 0 C0.99 0.33 1.98 0.66 3 1 C2.1875 2.9375 2.1875 2.9375 1 5 C0.01 5.33 -0.98 5.66 -2 6 C-2.33 5.01 -2.66 4.02 -3 3 C-2.01 2.01 -1.02 1.02 0 0 Z " fill="#CB2B36" transform="translate(377,228)"/>
<path d="M0 0 C1.32 0.66 2.64 1.32 4 2 C4.33 1.34 4.66 0.68 5 0 C4.67 1.32 4.34 2.64 4 4 C2.68 4.33 1.36 4.66 0 5 C-0.5625 3.0625 -0.5625 3.0625 -1 1 C-0.67 0.67 -0.34 0.34 0 0 Z " fill="#C32126" transform="translate(517,164)"/>
<path d="M0 0 C0.33 0.99 0.66 1.98 1 3 C-0.65 4.32 -2.3 5.64 -4 7 C-4.66 6.67 -5.32 6.34 -6 6 C-4 4 -2 2 0 0 Z " fill="#732324" transform="translate(132,96)"/>
<path d="M0 0 C0.33 1.32 0.66 2.64 1 4 C0.360625 4.28875 -0.27875 4.5775 -0.9375 4.875 C-3.15206079 5.82823451 -3.15206079 5.82823451 -4 8 C-4 7.01 -4 6.02 -4 5 C-3.34 5 -2.68 5 -2 5 C-2 3.68 -2 2.36 -2 1 C-1.34 0.67 -0.68 0.34 0 0 Z " fill="#C1333B" transform="translate(209,267)"/>
<path d="M0 0 C1.31223496 3.93670488 0.24296256 6.12488144 -1 10 C-1.99 10 -2.98 10 -4 10 C-2.8905928 6.51329166 -1.73662334 3.22515763 0 0 Z " fill="#B14448" transform="translate(190,214)"/>
<path d="M0 0 C0.99 0 1.98 0 3 0 C2.34 1.32 1.68 2.64 1 4 C0.34 4 -0.32 4 -1 4 C-1.33 4.99 -1.66 5.98 -2 7 C-2.33 6.34 -2.66 5.68 -3 5 C-2.67 4.01 -2.34 3.02 -2 2 C-1.34 2 -0.68 2 0 2 C0 1.34 0 0.68 0 0 Z " fill="#DA2533" transform="translate(193,212)"/>
<path d="M0 0 C0.33 0 0.66 0 1 0 C1.36923077 6.52307692 1.36923077 6.52307692 -0.5 8.9375 C-0.995 9.288125 -1.49 9.63875 -2 10 C-2 8.02 -2 6.04 -2 4 C-1.34 4 -0.68 4 0 4 C0 2.68 0 1.36 0 0 Z " fill="#C5282F" transform="translate(82,190)"/>
<path d="M0 0 C-2.97 1.65 -5.94 3.3 -9 5 C-8.67 3.68 -8.34 2.36 -8 1 C-4.70594381 -0.82039948 -3.63772813 -1.21257604 0 0 Z " fill="#B44247" transform="translate(295,128)"/>
<path d="M0 0 C0.66 0.33 1.32 0.66 2 1 C-1.61328125 5.6875 -1.61328125 5.6875 -3 7 C-3.99 7 -4.98 7 -6 7 C-6 6.34 -6 5.68 -6 5 C-4.04072937 3.2856382 -2.04119788 1.61594832 0 0 Z " fill="#691F1D" transform="translate(146,83)"/>
</svg>
